<svg version="1.2" xmlns="http://www.w3.org/2000/svg" viewBox="0 0 1026 646" width="1026" height="646">
	<title>Figure_1-svg</title>
	<style>
		.s0 { fill: #080b62;stroke: #1f77b4;stroke-linecap: square;stroke-width: 1.5 } 
	</style>
	<path id="Layer" fill-rule="evenodd" class="s0" d="m312 214.5v-3.5h-5.6v14.2h-5.6v-3.6h-11.1v-3.5h11.1v-7.1h-11.1v3.5h-5.6v-3.5h-5.6v3.5h-5.6v-3.5h-5.5v3.5h-16.8v-3.5h11.2v-3.6h-27.9v-3.6h-5.6v3.6h-5.6v-3.6h-5.5v-7.1h5.5v3.6h16.8v3.5h5.6v-3.5h5.5v3.5h16.8v3.6h27.9v-3.6h-22.4v-3.5h27.9v7.1h5.6v-3.6h5.6v3.6h5.6v-3.6h16.7v-3.5h-11.1v-3.6h-5.6v3.6h-5.6v-3.6h-39.1v-3.5h-5.5v7.1h-5.6v-7.1h-5.6v3.5h-22.3v-3.5h16.7v-7.2h-5.5v3.6h-16.8v3.6h-5.6v-3.6h-5.5v-3.6h-5.6v-7.1h5.6v3.6h5.5v3.5h16.8v-3.5h-11.2v-3.6h5.6v-3.5h-16.7v-3.6h11.1v-3.5h5.6v3.5h5.6v7.1h5.6v3.6h5.5v-10.7h-5.5v-3.5h11.1v21.3h16.7v-3.6h-5.5v-3.5h-5.6v-3.6h5.6v-7.1h-5.6v-7.1h-5.6v-3.6h-11.1v3.6h-16.8v-7.1h5.6v3.5h5.6v-3.5h5.6v-3.6h5.5v3.6h5.6v-3.6h5.6v7.1h5.6v7.2h5.5v14.2h5.6v10.7h11.2v-3.6h5.6v3.6h5.5v-3.6h5.6v3.6h5.6v-7.2h-27.9v-3.5h27.9v-3.6h-33.5v-3.5h16.8v-3.6h5.5v3.6h11.2v-7.1h-16.7v-3.6h-5.6v7.1h-11.2v-3.5h5.6v-3.6h-11.2v-7.1h5.6v3.5h11.2v-3.5h-5.6v-3.6h-5.6v-3.5h5.6v-3.6h-11.2v7.1h-5.5v-3.5h-16.8v-3.6h16.8v-3.6h11.1v-7.1h-5.6v3.6h-5.5v-7.1h11.1v-3.6h5.6v14.2h5.6v10.7h5.6v-17.8h-5.6v-10.7h11.1v3.6h-5.5v3.6h11.1v3.5h-5.6v21.4h-5.5v3.5h5.5v3.6h5.6v-17.8h5.6v10.7h5.6v-7.1h5.6v-3.6h5.5v7.1h-5.5v7.1h-11.2v3.6h5.6v3.6h5.6v-3.6h5.5v7.1h-11.1v21.4h5.6v-17.8h5.5v21.3h5.6v-3.5h5.6v-3.6h-5.6v-3.6h5.6v-3.5h-5.6v-3.6h11.2v-3.5h-11.2v-3.6h5.6v-3.5h-5.6v-3.6h5.6v-3.6h-11.2v-3.5h11.2v-3.6h-5.6v-3.5h5.6v-3.6h-5.6v-3.6h-27.9v-3.5h5.6v-10.7h-5.6v-3.6h11.2v14.3h5.6v-3.6h5.5v3.6h5.6v-3.6h5.6v-7.1h-11.2v3.6h-5.5v-7.2h5.5v-10.6h5.6v10.6h11.2v-7.1h5.6v10.7h-5.6v7.1h5.6v3.6h-11.2v3.5h5.6v14.3h5.6v-14.3h5.5v-10.6h5.6v14.2h-5.6v10.7h5.6v3.5h-16.7v3.6h5.6v3.6h-5.6v3.5h5.6v10.7h-5.6v14.2h-5.6v3.6h5.6v3.5h5.6v-3.5h5.5v-3.6h-5.5v-3.5h5.5v-3.6h-5.5v-3.6h5.5v-21.3h5.6v14.2h5.6v-10.6h5.6v14.2h-11.2v3.5h5.6v3.6h-5.6v3.6h5.6v3.5h-5.6v7.1h-5.6v3.6h11.2v-7.1h5.6v10.7h-11.2v3.5h-5.6v3.6h11.2v-3.6h5.6v3.6h5.5v3.5h-11.1v3.6h11.1v7.1h5.6v-7.1h5.6v14.2h5.6v-14.2h5.6v10.7h5.5v-14.3h-5.5v-3.5h-5.6v3.5h-11.2v-3.5h5.6v-3.6h-11.2v-3.5h16.8v3.5h5.6v-7.1h-22.4v-10.7h-5.5v-7.1h5.5v3.6h5.6v-7.2h-5.6v-3.5h5.6v-3.6h5.6v3.6h5.6v-7.1h-5.6v-3.6h-5.6v3.6h-5.6v-7.1h11.2v-3.6h-22.3v-3.6h11.1v-3.5h5.6v3.5h5.6v-7.1h-16.7v3.6h-5.6v-3.6h-5.6v-3.5h5.6v-14.3h5.6v14.3h5.5v-17.8h5.6v17.8h5.6v-21.4h5.6v21.4h5.6v-3.6h5.5v-3.6h5.6v-3.5h5.6v7.1h-5.6v3.6h-5.6v3.5h-11.1v3.6h5.6v3.5h-5.6v3.6h5.6v3.6h-5.6v3.5h5.6v14.2h-11.2v7.2h5.6v-3.6h5.6v7.1h-16.8v3.6h5.6v3.5h5.6v-3.5h5.6v3.5h5.5v-7.1h5.6v3.6h5.6v-7.1h-11.2v-35.6h5.6v32h5.6v-7.1h5.6v10.7h5.6v-14.3h-11.2v-17.8h5.6v14.3h5.6v-7.1h5.5v28.4h-11.1v3.6h5.6v7.1h-11.2v-3.6h-5.6v3.6h-5.6v10.7h5.6v-7.1h16.8v3.5h-11.2v7.1h-5.6v3.6h5.6v3.6h-5.6v7.1h5.6v-3.6h5.6v-14.2h5.6v21.3h-22.4v3.6h11.2v3.6h5.6v-3.6h5.6v7.1h-16.8v-3.5h-5.6v7.1h16.8v10.7h5.6v-3.6h5.5v-3.6h-5.5v-3.5h5.5v-3.6h5.6v-3.5h-5.6v-3.6h5.6v-3.6h-5.6v-3.5h5.6v-3.6h-5.6v-7.1h11.2v-3.6h-11.2v-7.1h5.6v3.6h11.2v-3.6h-5.6v-3.5h-11.2v-3.6h5.6v-3.6h-5.6v-3.5h5.6v-35.6h-11.1v-7.1h-11.2v-3.6h11.2v-3.5h-5.6v-7.2h5.6v3.6h5.5v14.2h5.6v-14.2h5.6v32h5.6v3.6h-5.6v3.5h5.6v3.6h-5.6v3.6h5.6v3.5h-5.6v3.6h5.6v3.5h-5.6v3.6h5.6v3.6h5.5v14.2h-5.5v3.6h-5.6v3.5h5.6v3.6h-5.6v3.5h5.6v3.6h-5.6v14.2h-5.6v3.6h5.6v3.6h-5.6v3.5h5.6v3.6h-5.6v7.1h-11.1v3.5h5.5v3.6h-5.5v3.6h11.1v3.5h5.6v3.6h5.6v-7.1h-5.6v-3.6h-5.6v-3.6h5.6v-7.1h11.1v3.6h-5.5v3.5h5.5v14.3h5.6v-3.6h5.6v3.6h5.6v-7.1h-11.2v-3.6h11.2v-3.6h-11.2v-7.1h11.2v3.6h5.6v7.1h5.5v3.6h11.2v-3.6h-5.6v-3.6h-5.6v-7.1h-5.5v-7.1h-5.6v3.6h-22.3v-7.1h5.5v-3.6h-5.5v-3.6h11.1v10.7h5.6v-3.5h5.6v-3.6h-5.6v-10.7h-5.6v3.6h-11.1v-7.1h5.5v-3.6h5.6v-3.6h-5.6v-3.5h5.6v-3.6h-5.6v-3.5h5.6v-21.4h-5.6v-10.7h5.6v3.6h5.6v-7.1h-11.2v-3.6h5.6v-3.6h-5.6v-3.5h5.6v-7.1h-5.6v-3.6h-5.5v-28.5h-16.8v-3.5h-5.5v-3.6h-22.4v3.6h-5.5v-7.1h11.1v-3.6h-11.1v-3.6h-5.6v-3.5h-11.2v-3.6h5.6v-3.5h5.6v3.5h5.6v3.6h5.5v3.5h5.6v-7.1h-5.6v-3.5h5.6v-3.6h5.6v14.2h5.6v3.6h-5.6v3.6h11.2v-7.2h5.5v10.7h5.6v3.6h11.2v-3.6h-5.6v-3.5h-5.6v-3.6h5.6v-3.6h-5.6v-3.5h-16.7v-3.6h11.1v-3.5h-11.1v-3.6h11.1v-10.7h-5.5v-3.5h16.7v3.5h-5.6v3.6h5.6v3.5h-5.6v3.6h11.2v3.6h-11.2v3.5h5.6v3.6h5.6v-3.6h5.5v3.6h5.6v3.5h11.2v3.6h-16.8v-3.6h-5.5v7.2h5.5v28.4h5.6v-28.4h5.6v3.5h5.6v3.6h-5.6v7.1h5.6v-3.6h5.6v7.2h-11.2v10.6h5.6v-7.1h5.6v10.7h-5.6v3.6h-5.6v-3.6h-11.2v3.6h5.6v3.5h5.6v17.8h5.6v3.6h5.6v3.5h-5.6v3.6h5.6v3.5h-11.2v17.8h5.6v3.6h-5.6v3.6h5.6v3.5h5.6v3.6h-11.2v3.5h5.6v3.6h-5.6v3.6h11.2v-7.2h5.5v-10.6h-5.5v-3.6h5.5v-3.6h-5.5v-3.5h-5.6v-3.6h11.1v-3.5h-11.1v-3.6h11.1v-7.1h5.6v24.9h5.6v-28.5h-5.6v-3.5h-5.6v-3.6h-5.5v-7.1h-5.6v-10.7h5.6v7.1h5.5v7.1h5.6v3.6h5.6v3.6h5.6v7.1h5.6v-10.7h5.5v-7.1h-5.5v-3.6h-5.6v7.1h-5.6v-7.1h-5.6v-3.5h-5.6v-10.7h5.6v7.1h5.6v3.6h11.2v-7.1h-11.2v-3.6h5.6v-3.6h-16.8v-17.8h5.6v14.3h5.6v-7.1h5.6v-3.6h-5.6v-7.1h-5.6v-3.6h-5.6v3.6h-5.5v-10.7h5.5v3.6h5.6v-10.7h-5.6v-3.6h5.6v-3.5h11.2v3.5h-5.6v10.7h5.6v-7.1h5.6v10.7h-11.2v3.5h11.2v3.6h-5.6v3.5h5.6v3.6h5.5v-7.1h5.6v10.7h-11.1v3.5h-5.6v3.6h5.6v7.1h5.5v-10.7h5.6v14.3h-5.6v10.6h5.6v-3.5h5.6v-21.4h5.6v10.7h11.1v3.6h-11.1v7.1h5.6v-3.6h5.5v7.1h-16.7v3.6h-5.6v3.5h5.6v3.6h-5.6v3.6h-5.6v7.1h5.6v7.1h-5.6v-3.6h-11.1v3.6h5.6v3.6h11.1v3.5h-16.7v3.6h5.6v3.5h5.5v-3.5h5.6v7.1h-16.7v3.6h-5.6v3.5h-5.6v3.6h5.6v3.5h-5.6v3.6h-5.6v7.1h-5.5v3.6h-5.6v3.5h5.6v3.6h5.5v10.7h5.6v7.1h5.6v-10.7h-5.6v-3.5h11.2v-3.6h-11.2v-3.6h-5.6v-3.5h11.2v3.5h5.6v-3.5h5.6v14.2h-5.6v24.9h-22.3v3.6h5.5v3.5h5.6v-3.5h11.2v3.5h-5.6v3.6h5.6v7.1h5.6v-10.7h5.5v14.3h5.6v-14.3h5.6v-3.5h-16.7v-3.6h11.1v-3.5h-11.1v-17.8h5.5v-17.8h5.6v-3.6h-27.9v-3.5h5.6v-3.6h5.6v-3.6h5.6v7.2h11.1v-3.6h-5.6v-3.6h11.2v7.2h5.6v3.5h-5.6v7.1h-5.6v21.4h-5.6v7.1h5.6v-3.6h5.6v-10.6h5.6v-3.6h-5.6v-7.1h5.6v-7.1h5.6v-10.7h-5.6v-3.6h5.6v-3.5h-33.5v-3.6h5.6v-3.5h5.5v3.5h5.6v-3.5h5.6v-3.6h5.6v7.1h5.6v-7.1h5.5v-3.6h-16.7v-3.5h11.2v-3.6h-11.2v-7.1h5.6v-3.6h-5.6v-10.6h5.6v-10.7h11.1v3.5h-5.5v10.7h-5.6v3.6h5.6v10.7h5.5v3.5h5.6v-7.1h-5.6v-10.7h5.6v7.1h5.6v-7.1h5.6v10.7h-5.6v3.6h5.6v7.1h-11.2v3.5h5.6v3.6h-5.6v3.6h-5.6v3.5h5.6v3.6h-5.6v10.7h5.6v3.5h-5.6v3.6h5.6v3.5h-11.1v3.6h11.1v7.1h-5.6v-3.5h-5.5v7.1h5.5v3.5h-5.5v3.6h-5.6v10.7h-5.6v3.5h5.6v3.6h5.6v-3.6h5.5v-3.5h-5.5v-7.2h5.5v-3.5h5.6v17.8h5.6v-21.4h-5.6v-3.5h5.6v-3.6h5.6v24.9h5.5v3.6h11.2v3.5h5.6v-10.6h-5.6v3.5h-5.6v-3.5h-5.6v-7.2h5.6v3.6h5.6v-3.6h11.2v-3.5h-22.4v-14.2h-11.1v-3.6h11.1v-3.6h-11.1v-7.1h5.6v3.6h5.5v-3.6h11.2v7.1h-5.6v17.8h16.8v-3.5h-11.2v-10.7h5.6v7.1h5.6v-10.7h-5.6v-7.1h11.1v-3.5h-16.7v-3.6h-5.6v3.6h-5.6v-3.6h-5.5v3.6h-5.6v-3.6h-5.6v-3.6h5.6v-3.5h5.6v3.5h5.5v-3.5h5.6v-3.6h5.6v-3.5h-5.6v-3.6h-5.6v7.1h-11.1v-3.5h5.6v-7.2h5.5v-3.5h5.6v3.5h5.6v-7.1h-11.2v-21.3h-22.3v-3.6h5.6v-14.2h5.6v7.1h11.1v3.5h-11.1v3.6h16.7v21.4h5.6v-28.5h-5.6v-3.6h-11.1v-3.5h11.1v-3.6h-22.3v-7.1h5.6v3.6h16.7v-3.6h-11.1v-3.6h-22.3v-7.1h5.5v3.6h16.8v-3.6h-11.2v-3.5h-22.3v-3.6h16.7v-3.6h-16.7v-3.5h11.2v-3.6h-22.4v-10.7h5.6v7.2h5.6v-7.2h5.6v7.2h11.1v-3.6h-5.5v-3.6h5.5v-3.5h5.6v14.2h-5.6v3.6h11.2v3.5h-5.6v3.6h5.6v3.6h5.6v-7.2h5.5v-3.5h-5.5v-3.6h11.1v10.7h-5.6v14.2h5.6v-10.6h5.6v-17.8h-22.3v-7.2h5.6v3.6h5.5v-3.6h5.6v3.6h5.6v-3.6h5.6v-3.5h-11.2v-3.6h5.6v-3.5h-11.2v7.1h-5.5v-7.1h-5.6v3.5h-16.7v-3.5h11.1v-3.6h16.7v-3.6h-22.3v3.6h-16.7v-3.6h11.2v-7.1h-5.6v3.6h-5.6v-3.6h-5.6v-7.1h5.6v3.6h5.6v-3.6h5.6v3.6h5.5v7.1h5.6v-10.7h5.6v10.7h11.1v-3.6h-5.5v-3.5h5.5v-3.6h-5.5v-3.5h11.1v7.1h5.6v3.5h-5.6v10.7h5.6v-7.1h5.6v-10.7h5.6v-3.5h-5.6v-3.6h11.1v-3.6h5.6v7.2h-5.6v7.1h-5.5v7.1h5.5v-3.6h5.6v7.1h-16.7v10.7h5.6v-7.1h5.5v7.1h5.6v-3.5h5.6v3.5h5.6v-7.1h-5.6v-3.6h11.2v-3.5h5.5v-3.6h-5.5v-7.1h5.5v3.6h5.6v-7.1h-5.6v-3.6h11.2v3.6h5.6v3.5h-5.6v3.6h16.7v3.5h-22.3v3.6h5.6v7.1h-5.6v-3.6h-5.6v3.6h-5.5v3.6h11.1v10.6h-5.6v-7.1h-5.5v3.6h-5.6v3.5h5.6v3.6h-11.2v-7.1h-16.7v3.5h11.1v3.6h-16.7v3.6h11.1v3.5h-11.1v7.1h5.6v3.6h-5.6v3.6h16.7v-7.2h-5.6v-3.5h5.6v-7.1h5.6v14.2h5.6v-10.7h5.6v-3.5h5.5v7.1h-5.5v10.7h-11.2v3.5h-27.9v3.6h16.7v3.5h-16.7v7.2h5.6v-3.6h5.6v3.6h5.5v-3.6h5.6v3.6h5.6v3.5h-11.2v7.1h-5.5v-7.1h-11.2v7.1h5.6v3.6h5.6v3.5h-5.6v17.8h5.6v-7.1h5.5v10.7h-11.1v7.1h5.6v-3.5h5.5v3.5h5.6v7.1h-5.6v-3.5h-11.1v3.5h5.6v3.6h5.5v3.6h-11.1v7.1h-5.6v3.5h5.6v3.6h11.1v-3.6h-5.5v-7.1h5.5v3.6h5.6v3.5h5.6v3.6h-5.6v3.6h5.6v3.5h-5.6v3.6h-5.6v3.5h5.6v3.6h-5.6v3.6h5.6v3.5h5.6v-14.2h5.6v17.8h5.6v-3.6h5.5v-3.5h-5.5v-14.3h-5.6v-10.7h5.6v-7.1h-5.6v3.6h-5.6v-3.6h-5.6v-7.1h5.6v-3.6h5.6v-3.5h-5.6v-3.6h5.6v-3.5h-11.2v-3.6h5.6v-3.6h-5.6v-10.6h-11.1v-3.6h5.5v-7.1h5.6v-7.1h5.6v10.6h-5.6v3.6h5.6v10.7h5.6v-17.8h5.6v-3.6h-5.6v-3.5h5.6v-7.1h-5.6v-3.6h5.6v-3.6h-16.8v-3.5h11.2v-3.6h5.6v3.6h5.5v3.5h5.6v-7.1h-5.6v-10.7h5.6v-3.5h5.6v7.1h-5.6v3.6h5.6v3.5h5.6v3.6h-5.6v3.5h11.2v3.6h-22.4v7.1h5.6v3.6h-5.6v10.6h-5.5v7.2h5.5v3.5h-5.5v7.1h-5.6v3.6h5.6v14.2h5.5v-7.1h5.6v-3.5h-5.6v-3.6h5.6v-3.6h-5.6v-3.5h5.6v-17.8h5.6v7.1h5.6v3.6h-5.6v10.6h5.6v-7.1h5.6v10.7h-11.2v3.6h5.6v7.1h-11.2v3.5h5.6v3.6h-22.3v3.6h16.7v3.5h-5.6v3.6h5.6v3.5h5.6v3.6h-16.7v3.6h5.5v14.2h5.6v-14.2h5.6v10.6h5.6v-14.2h11.1v-7.1h-5.5v3.5h-5.6v-3.5h-5.6v-7.1h5.6v-7.2h5.6v-10.6h16.7v-3.6h-11.2v-14.2h-5.5v-3.6h11.1v14.2h5.6v-17.8h-22.3v-3.5h11.1v-3.6h-16.7v-10.6h5.6v7.1h11.1v-3.6h-5.5v-3.5h5.5v-10.7h-5.5v-3.6h5.5v-3.5h5.6v-3.6h-11.1v3.6h-5.6v-10.7h5.6v3.5h11.1v-3.5h-5.6v-3.6h-11.1v-3.5h-5.6v3.5h-5.6v-7.1h5.6v-7.1h5.6v-3.6h-5.6v-3.5h5.6v-3.6h5.6v14.2h-5.6v3.6h5.6v3.6h5.5v-25h-5.5v-3.5h11.1v3.5h5.6v3.6h-5.6v14.2h5.6v-10.6h5.6v10.6h5.5v-10.6h11.2v3.5h-5.6v3.6h11.2v3.5h-11.2v3.6h-5.6v3.6h-5.5v-3.6h-11.2v7.1h5.6v3.6h11.1v-3.6h5.6v-3.5h5.6v3.5h5.6v3.6h-11.2v3.5h-16.7v10.7h-5.6v7.1h5.6v3.6h-5.6v17.8h5.6v-3.6h5.6v-7.1h-5.6v-3.5h5.6v-3.6h5.5v-7.1h-5.5v-10.7h11.1v3.6h-5.6v3.5h5.6v3.6h5.6v3.5h-5.6v3.6h5.6v3.6h-11.2v3.5h11.2v3.6h-11.2v3.5h5.6v3.6h-11.1v32h-16.8v3.6h5.6v3.5h-5.6v3.6h-5.5v3.6h5.5v3.5h11.2v-3.5h-5.6v-3.6h5.6v-7.1h5.6v3.5h5.5v3.6h5.6v-3.6h5.6v-3.5h-11.2v-3.6h5.6v-3.5h-5.6v-25h5.6v21.4h11.2v-3.6h-5.6v-3.5h5.6v-3.6h-5.6v-3.5h5.6v-3.6h-5.6v-3.6h5.6v-3.5h-5.6v-3.6h5.6v-3.5h5.6v35.6h-11.2v3.5h5.6v10.7h5.6v-10.7h5.5v3.6h5.6v-7.1h-5.6v-35.6h5.6v-3.6h-16.7v-3.5h5.6v-3.6h-5.6v-10.7h5.6v-3.5h-11.2v-7.2h5.6v3.6h5.6v-14.2h-5.6v-3.6h11.1v3.6h5.6v3.5h-5.6v3.6h5.6v3.5h-5.6v14.3h-5.5v3.5h5.5v7.2h11.2v-3.6h-5.6v-17.8h5.6v-3.6h5.6v7.2h-5.6v10.6h5.6v3.6h11.1v-7.1h-11.1v-3.6h11.1v-7.1h-5.5v-3.6h5.5v-7.1h-5.5v3.6h-11.2v-3.6h5.6v-3.5h-5.6v-3.6h5.6v-3.6h-11.2v-3.5h11.2v-3.6h5.6v14.3h5.5v-17.8h-5.5v-3.6h11.1v3.6h5.6v3.5h-5.6v10.7h5.6v-7.1h5.6v10.7h-11.2v24.9h5.6v-21.4h5.6v17.8h5.5v3.6h-5.5v3.5h-11.2v3.6h5.6v3.6h-11.2v3.5h-5.5v-3.5h-5.6v3.5h-5.6v7.1h-5.6v7.1h5.6v3.6h-5.6v3.6h5.6v3.5h-5.6v10.7h11.2v-3.6h-5.6v-3.5h5.6v-7.1h5.6v-3.6h-5.6v-3.6h5.6v-3.5h-5.6v-7.1h5.6v3.5h5.5v10.7h5.6v-10.7h5.6v10.7h5.6v-14.2h-11.2v-3.6h16.7v-3.5h-5.5v-3.6h5.5v-3.6h5.6v-7.1h5.6v7.1h5.6v-10.6h-16.8v-3.6h11.2v-3.6h-11.2v-3.5h11.2v-3.6h-11.2v-3.5h11.2v-3.6h-11.2v-3.6h5.6v-3.5h5.6v3.5h5.6v-7.1h-5.6v-3.5h11.2v3.5h5.5v3.6h-5.5v3.5h11.1v-3.5h5.6v7.1h-11.2v3.6h-5.5v-3.6h-5.6v7.1h5.6v3.6h-5.6v7.1h5.6v3.6h5.5v-3.6h5.6v-3.6h-5.6v-7.1h5.6v3.6h5.6v10.7h-5.6v3.5h-11.1v7.1h5.5v-3.5h11.2v-3.6h5.6v7.1h-11.2v3.6h-27.9v3.6h22.3v3.5h-22.3v3.6h-5.6v7.1h11.2v-7.1h5.6v3.5h5.6v-3.5h5.5v3.5h5.6v-7.1h5.6v-7.1h11.2v-14.2h-5.6v-3.6h5.6v-3.6h-5.6v-3.5h5.6v-3.6h-11.2v-3.5h11.2v-3.6h-5.6v-3.6h5.6v-3.5h5.5v-3.6h5.6v7.1h-5.6v3.6h5.6v3.6h-5.6v3.5h11.2v-10.7h5.6v7.2h11.1v7.1h-5.5v-3.6h-5.6v3.6h-16.8v7.1h5.6v-3.6h5.6v3.6h5.6v3.6h-16.8v7.1h5.6v-3.6h5.6v3.6h11.2v-14.3h5.5v3.6h5.6v3.6h-5.6v3.5h11.2v3.6h-11.2v3.5h-5.5v3.6h-5.6v-3.6h-16.8v7.2h-11.1v3.5h16.7v-7.1h5.6v3.6h16.7v-3.6h5.6v3.6h11.2v3.5h-22.3v3.6h11.1v7.1h-5.6v-3.6h-11.1v-7.1h-5.6v3.6h-27.9v3.5h11.2v3.6h5.5v-3.6h11.2v3.6h-5.6v3.5h-16.7v-3.5h-27.9v3.5h-16.8v7.2h5.6v-3.6h16.8v-3.6h5.5v3.6h5.6v-3.6h5.6v3.6h11.2v3.6h-16.8v3.5h-5.6v-3.5h-16.7v3.5h11.2v7.1h-5.6v-3.5h-5.6v3.5h-5.6v-7.1h-5.6v3.6h-5.5v-7.1h-16.8v3.5h-5.5v3.6h11.1v-3.6h5.6v7.1h-16.7v3.6h22.3v-3.6h5.5v3.6h5.6v3.6h-16.7v3.5h-5.6v-3.5h-5.6v3.5h-5.5v-3.5h-5.6v3.5h-5.6v3.6h27.9v3.5h-39.1v3.6h44.7v-10.7h5.5v7.1h5.6v-7.1h5.6v-7.1h16.7v-7.1h5.6v17.8h-5.6v-7.1h-11.1v3.5h5.6v3.6h-11.2v7.1h5.6v-3.6h5.6v3.6h5.5v3.6h5.6v-7.2h5.6v-24.9h5.6v3.6h5.6v-3.6h5.5v-7.1h11.2v3.6h-5.6v3.5h11.2v-3.5h5.6v-7.2h5.5v7.2h5.6v-3.6h5.6v-7.1h5.6v3.5h5.5v3.6h-5.5v3.6h-5.6v3.5h-5.6v3.6h-5.6v-3.6h-5.5v3.6h-22.4v3.5h-11.1v3.6h16.7v-3.6h22.3v3.6h-16.7v3.6h-22.3v3.5h27.9v-3.5h5.6v3.5h5.5v-3.5h5.6v7.1h5.6v-7.1h5.6v7.1h5.5v-10.7h-5.5v-3.6h5.5v-3.5h5.6v17.8h5.6v-10.7h5.6v-7.1h5.6v10.7h-5.6v3.5h5.6v3.6h-5.6v3.5h-11.2v3.6h-5.6v-3.6h-16.7v3.6h-5.6v-7.1h-11.1v3.5h-5.6v-3.5h-5.6v7.1h-5.6v-7.1h-11.1v3.5h5.6v3.6h-11.2v7.1h5.6v-3.5h11.1v3.5h-5.5v3.6h11.1v-7.1h5.6v3.5h5.6v-7.1h5.6v7.1h5.5v-3.5h11.2v-3.6h5.6v3.6h16.7v-3.6h5.6v7.1h-5.6v7.1h5.6v-3.5h5.6v3.5h5.5v3.6h-5.5v7.1h-5.6v-7.1h-5.6v3.6h-11.2v-3.6h5.6v-3.6h-5.6v-3.5h5.6v-3.6h-11.1v3.6h-5.6v-3.6h-5.6v3.6h-5.6v3.5h-5.5v-3.5h-11.2v3.5h-5.6v3.6h-5.6v-3.6h-5.5v3.6h-5.6v-7.1h-5.6v10.7h5.6v3.5h5.6v-3.5h16.7v-3.6h5.6v3.6h5.6v-3.6h5.5v3.6h5.6v-7.2h11.2v3.6h-5.6v3.6h5.6v3.5h-44.7v3.6h27.9v3.5h-33.4v-3.5h-11.2v-3.6h-16.7v-3.5h11.1v-14.3h-5.6v10.7h-5.5v-14.2h-5.6v14.2h-5.6v-14.2h-5.6v-3.6h-5.6v7.1h5.6v3.6h-11.1v-7.1h-5.6v7.1h-5.6v-7.1h-5.6v3.5h-11.1v-3.5h-5.6v3.5h-5.6v3.6h-5.6v-7.1h-11.1v3.5h5.6v3.6h-22.4v-3.6h11.2v-3.5h-16.7v7.1h-11.2v3.5h55.8v-3.5h5.6v3.5h5.6v-3.5h5.5v3.5h27.9v3.6h-16.7v3.6h11.1v3.5h5.6v-3.5h5.6v3.5h5.6v3.6h-11.2v3.5h-5.6v-3.5h-5.5v-3.6h-11.2v-7.1h-11.1v3.6h5.5v7.1h-5.5v-3.6h-5.6v-7.1h-5.6v7.1h-5.6v-7.1h-5.6v3.6h-5.5v-3.6h-5.6v3.6h-5.6v-3.6h-5.6v3.6h-5.6v-3.6h-5.5v3.6h-5.6v-3.6h-5.6v3.6h-5.6v3.5h-5.5v7.1h5.5v-3.5h5.6v-3.6h5.6v3.6h5.6v-3.6h33.4v3.6h5.6v3.5h-11.1v-3.5h-5.6v3.5h-5.6v-3.5h-5.6v3.5h-5.6v3.6h-5.5v-3.6h-5.6v3.6h-22.3v3.6h-11.2v3.5h5.6v3.6h-5.6v7.1h5.6v-3.6h5.6v3.6h5.6v-7.1h-5.6v-3.6h5.6v-3.5h22.3v3.5h-11.2v3.6h-5.6v3.5h5.6v3.6h5.6v-7.1h11.1v-7.1h5.6v-3.6h5.6v7.1h-5.6v3.6h11.2v-10.7h5.6v3.6h5.5v-3.6h11.2v-7.1h5.6v3.5h11.1v3.6h-11.1v3.6h22.3v-3.6h-5.6v-7.1h5.6v3.5h5.6v3.6h11.1v3.6h-11.1v3.5h-16.8v3.6h-5.5v-3.6h-5.6v3.6h-5.6v-7.1h-5.6v3.5h-11.1v3.6h11.1v3.5h11.2v3.6h-16.8v-3.6h-5.5v3.6h-5.6v3.5h-5.6v-7.1h-16.7v3.6h11.1v3.5h-16.7v3.6h-5.6v-3.6h-5.6v7.2h-5.5v-7.2h-5.6v7.2h-5.6v-7.2h-5.6v3.6h-5.6v-10.7h-5.5v7.1h-5.6v-7.1h-5.6v-3.5h-5.6v3.5h-5.6v3.6h11.2v3.5h-5.6v3.6h5.6v3.6h-11.2v-3.6h-5.5v7.1h5.5v3.6h-5.5v7.1h5.5v-3.6h5.6v-7.1h5.6v10.7h5.6v-17.8h5.6v14.2h5.5v-10.6h5.6v7.1h5.6v-3.6h5.6v3.6h5.6v-3.6h5.5v3.6h5.6v-7.1h11.2v-3.6h22.3v3.6h5.6v-7.2h27.9v-7.1h5.5v3.6h5.6v-7.1h5.6v7.1h5.6v-7.1h5.5v3.5h11.2v-3.5h-5.6v-3.6h5.6v-10.7h5.6v3.6h11.1v-3.6h-5.5v-3.5h11.1v3.5h11.2v3.6h27.9v3.6h11.1v-3.6h11.2v-3.6h-5.6v-3.5h11.2v3.5h5.5v-3.5h5.6v3.5h11.2v7.2h-5.6v-3.6h-16.7v3.6h-11.2v3.5h-22.3v-3.5h-27.9v-3.6h-5.6v3.6h-16.7v3.5h11.1v3.6h-11.1v3.5h5.6v3.6h-11.2v3.5h-5.6v-3.5h-5.6v3.5h-11.1v3.6h-5.6v-3.6h-5.6v3.6h-27.9v3.6h27.9v3.5h11.2v-3.5h5.6v-3.6h5.5v3.6h5.6v-3.6h5.6v3.6h5.6v-7.2h5.6v3.6h5.5v-7.1h5.6v-10.7h27.9v3.6h-11.1v3.5h-5.6v-3.5h-5.6v7.1h16.7v-3.6h5.6v3.6h11.2v-3.6h-5.6v-3.5h11.2v10.6h-11.2v3.6h-5.6v-3.6h-27.9v3.6h22.3v3.6h-11.1v3.5h-5.6v-3.5h-5.6v3.5h-5.6v-3.5h-5.5v3.5h-27.9v3.6h39v3.5h-5.6v10.7h-5.5v-10.7h-16.8v3.6h11.2v3.6h-16.8v-7.2h-11.1v-3.5h-11.2v3.5h-5.5v-7.1h-33.5v3.6h5.6v3.5h-11.2v-10.6h-5.6v3.5h-16.7v3.6h16.7v3.5h-50.2v3.6h-11.1v3.6h-27.9v3.5h33.4v-3.5h5.6v3.5h11.2v-3.5h-5.6v-3.6h11.2v3.6h5.5v-3.6h11.2v3.6h5.6v-3.6h11.1v7.1h11.2v-3.5h-5.6v-3.6h11.2v3.6h5.5v-10.7h16.8v3.5h-11.2v3.6h39.1v3.6h-5.6v3.5h-5.6v-3.5h-27.9v3.5h22.3v3.6h-11.1v3.5h22.3v-3.5h11.1v-3.6h5.6v3.6h5.6v-3.6h5.6v3.6h16.7v-10.7h5.6v-7.1h5.6v7.1h5.6v-7.1h5.5v-3.6h5.6v-3.5h11.2v-3.6h5.6v3.6h5.5v-17.8h5.6v10.6h5.6v-14.2h5.6v3.6h5.5v-3.6h5.6v3.6h5.6v3.5h-5.6v3.6h-5.6v-3.6h-5.5v7.1h5.5v3.6h5.6v-3.6h5.6v-3.5h11.2v-3.6h5.5v3.6h5.6v3.5h-16.7v3.6h-5.6v3.6h-16.7v-3.6h-11.2v3.6h5.6v3.5h33.5v3.6h-11.2v7.1h-5.6v-7.1h-5.6v3.5h-5.5v-3.5h-5.6v3.5h-5.6v-7.1h-5.6v10.7h-5.5v-3.6h-5.6v-3.5h5.6v-3.6h-11.2v3.6h-5.6v3.5h-5.6v7.2h-16.7v10.6h5.6v-3.5h5.6v-3.6h5.5v7.1h-5.5v3.6h16.7v-3.6h-5.6v-14.2h5.6v3.6h11.2v3.5h-11.2v3.6h16.7v-7.1h5.6v-3.6h16.7v3.6h16.8v3.5h-22.3v-3.5h-5.6v3.5h-5.6v3.6h11.2v3.5h-27.9v3.6h33.4v-7.1h11.2v3.5h-5.6v3.6h11.2v-3.6h5.6v3.6h11.1v-3.6h5.6v3.6h5.6v3.6h-11.2v7.1h-5.6v-7.1h-5.5v3.5h-5.6v-3.5h-50.2v3.5h44.6v3.6h11.2v7.1h-5.6v-3.6h-11.2v-3.5h-5.6v7.1h11.2v3.6h16.7v3.5h-22.3v-3.5h-11.1v-10.7h-16.8v3.5h11.2v7.2h-5.6v-3.6h-5.6v7.1h5.6v3.6h5.6v-3.6h5.6v3.6h16.7v3.5h-16.7v3.6h16.7v3.5h-11.2v3.6h-5.5v-3.6h-5.6v-7.1h-5.6v10.7h-11.1v-3.6h5.5v-3.5h-11.1v-3.6h11.1v-3.5h-5.5v-17.8h-5.6v14.2h-5.6v-7.1h-5.6v10.7h-5.6v-14.3h11.2v-10.6h-5.6v7.1h-5.6v-7.1h-5.5v7.1h-5.6v-10.7h-5.6v3.6h-11.2v-3.6h5.6v-3.6h-11.1v10.7h-5.6v-10.7h-22.3v3.6h-33.5v-7.1h-11.2v-3.6h-5.5v3.6h-5.6v3.5h-5.6v-3.5h-5.6v3.5h-5.6v-7.1h-5.5v7.1h-5.6v-7.1h-5.6v7.1h-5.6v-7.1h-5.5v7.1h-11.2v-3.5h-33.5v3.5h5.6v3.6h5.6v-3.6h5.6v3.6h5.5v-3.6h5.6v3.6h16.8v3.6h-39.1v3.5h27.9v3.6h5.6v-3.6h5.6v3.6h5.5v-3.6h5.6v-3.5h-5.6v-3.6h11.2v3.6h5.6v-3.6h11.1v3.6h5.6v-3.6h11.2v-3.6h11.1v7.2h11.2v3.5h5.6v-3.5h16.7v3.5h-11.2v3.6h16.8v-7.1h5.5v-3.6h5.6v3.6h5.6v3.5h-11.2v3.6h5.6v3.5h5.6v-3.5h5.6v3.5h11.1v-7.1h11.2v3.6h-5.6v3.5h16.8v3.6h-16.8v3.6h-5.6v-3.6h-5.5v7.1h5.5v3.6h11.2v-7.1h11.2v3.5h-5.6v3.6h5.6v3.5h5.5v3.6h-11.1v-3.6h-16.8v7.1h5.6v-3.5h5.6v3.5h22.3v-7.1h5.6v7.1h5.6v3.6h-22.3v3.6h22.3v3.5h-11.2v3.6h5.6v3.5h-11.2v-7.1h-5.5v7.1h-5.6v-14.2h-22.3v7.1h5.5v-3.5h5.6v3.5h5.6v3.6h-11.2v3.5h-5.5v-3.5h-5.6v3.5h-11.2v-3.5h5.6v-3.6h5.6v-10.7h5.6v-10.6h-5.6v-10.7h-16.8v-3.6h-11.1v3.6h-5.6v-3.6h-11.1v-3.5h-11.2v-3.6h-11.2v-3.5h-5.5v3.5h-33.5v3.6h-5.6v3.5h11.2v-3.5h5.5v3.5h5.6v-3.5h5.6v3.5h5.6v-3.5h5.6v3.5h5.5v-3.5h5.6v3.5h11.2v3.6h-16.8v3.6h22.4v-3.6h5.5v3.6h11.2v3.5h5.6v-3.5h16.7v7.1h-5.6v-3.6h-5.6v3.6h-5.5v3.5h22.3v3.6h-5.6v3.5h-5.6v-3.5h-16.7v-7.1h-5.6v-3.6h-39v-7.1h-5.6v7.1h-5.6v-7.1h-5.6v3.6h-5.6v-3.6h-5.5v3.6h-5.6v-3.6h-5.6v3.6h-5.6v-7.2h-22.3v-3.5h-27.9v-3.6h-5.6v7.1h5.6v3.6h5.6v-3.6h16.7v3.6h5.6v3.6h5.6v-3.6h11.2v3.6h-5.6v3.5h-11.2v3.6h-5.6v3.5h11.2v-3.5h11.2v-3.6h33.4v3.6h16.8v3.5h5.5v-3.5h5.6v7.1h5.6v-7.1h5.6v3.5h5.6v-3.5h5.5v3.5h5.6v3.6h-5.6v3.5h-5.5v-3.5h-5.6v3.5h-11.2v3.6h27.9v-3.6h5.6v3.6h5.6v-3.6h5.5v3.6h11.2v3.6h-11.2v7.1h-5.5v-7.1h-5.6v7.1h-5.6v-7.1h-33.5v-10.7h-5.5v7.1h-5.6v-10.7h-16.8v-3.5h-22.3v3.5h5.6v3.6h5.6v-3.6h5.6v3.6h16.7v3.5h-22.3v3.6h5.6v7.1h5.5v-7.1h11.2v3.6h-5.6v3.5h11.2v-3.5h5.6v3.5h5.5v3.6h5.6v-3.6h22.3v3.6h-11.1v3.5h11.1v3.6h11.2v-3.6h5.6v3.6h5.5v7.1h-5.5v-3.5h-5.6v3.5h-5.6v-3.5h-11.1v-3.6h-5.6v3.6h-5.6v-7.2h-5.6v7.2h-5.6v-7.2h-5.5v3.6h-11.2v3.6h-5.6v-7.2h11.2v-3.5h-16.8v7.1h-5.5v-7.1h-5.6v7.1h-5.6v-10.7h5.6v-3.5h-5.6v-7.2h-5.6v7.2h-11.1v3.5h11.1v3.6h-11.1v3.5h-5.6v-14.2h11.2v-3.6h-5.6v-3.5h-5.6v3.5h-5.6v3.6h-5.6v3.6h5.6v3.5h-5.6v3.6h5.6v3.5h-5.6v3.6h16.8v3.6h5.6v-7.2h5.5v7.2h11.2v3.5h-16.7v3.6h22.3v-7.1h5.5v3.5h16.8v-3.5h5.6v3.5h33.4v3.6h5.6v3.5h-11.1v-3.5h-27.9v3.5h22.3v3.6h-27.9v-7.1h-16.8v3.5h11.2v3.6h-16.7v-3.6h-5.6v7.2h11.1v3.5h5.6v-3.5h44.7v-3.6h16.7v-7.1h16.7v-7.1h5.6v-3.6h11.2v3.6h-5.6v3.5h-5.6v7.1h-16.7v3.6h22.3v-7.1h5.6v-3.6h5.5v-7.1h5.6v-3.6h5.6v3.6h27.9v7.1h-5.6v-3.5h-27.9v3.5h5.6v3.6h11.2v-3.6h5.5v3.6h5.6v3.5h-22.3v3.6h22.3v3.6h-27.9v-10.7h-5.6v3.5h-5.5v3.6h5.5v3.6h-33.4v3.5h22.3v3.6h5.6v-3.6h11.1v3.6h-5.6v3.5h16.8v-3.5h-5.6v-3.6h27.9v3.6h-16.7v3.5h22.3v-10.6h-5.6v-10.7h11.2v-3.6h-5.6v-3.5h5.6v-3.6h-5.6v-3.6h5.6v-10.6h16.7v3.5h-11.2v7.1h5.6v-3.5h5.6v7.1h5.6v3.6h-11.2v-3.6h-5.6v7.1h16.8v3.6h5.5v3.5h-11.1v-3.5h-11.2v3.5h-11.1v3.6h16.7v3.6h-11.1v3.5h5.5v3.6h-5.5v3.5h5.5v3.6h-27.9v3.6h-5.5v-3.6h-5.6v7.1h22.3v-3.5h22.3v-3.6h5.6v-7.1h-5.6v-3.6h5.6v-7.1h5.6v3.6h5.5v3.5h-5.5v3.6h11.1v3.5h-11.1v3.6h16.7v-7.1h11.2v-7.1h11.1v3.5h-5.6v3.6h5.6v3.5h-16.7v3.6h16.7v3.6h-11.1v3.5h5.5v3.6h5.6v3.5h-11.1v-3.5h-5.6v-7.1h-5.6v14.2h22.3v7.1h-5.6v-3.5h-5.5v3.5h-5.6v-3.5h-5.6v3.5h-5.6v10.7h-5.6v-14.2h5.6v-3.6h-5.6v-3.6h5.6v-10.6h-16.7v3.5h11.1v3.6h-5.5v7.1h-5.6v-7.1h-5.6v-3.6h-5.6v7.1h5.6v3.6h-5.6v10.7h5.6v-7.1h5.6v3.5h5.6v3.6h-5.6v3.5h5.6v3.6h-5.6v3.5h11.1v3.6h-5.5v3.6h-5.6v-3.6h-5.6v-10.7h-11.1v-3.5h-5.6v-3.6h5.6v-17.8h-5.6v3.6h-5.6v3.5h5.6v3.6h-5.6v3.6h-5.6v-10.7h-5.6v10.7h-5.5v-10.7h-11.2v-10.7h-11.2v3.6h5.6v3.5h-11.1v-10.7h-11.2v-3.5h-5.6v3.5h-5.6v-3.5h-11.1v-7.1h-11.2v3.5h5.6v3.6h-11.1v-3.6h-5.6v3.6h-5.6v-3.6h-5.6v3.6h-5.6v-3.6h-16.7v3.6h-16.7v3.5h22.3v-3.5h5.6v3.5h5.5v3.6h5.6v-3.6h5.6v3.6h5.6v-3.6h11.1v3.6h5.6v-3.6h5.6v3.6h27.9v3.6h-5.6v3.5h-5.6v-3.5h-27.9v3.5h-5.5v-3.5h-11.2v3.5h5.6v3.6h16.7v-3.6h16.7v3.6h-11.1v3.5h16.7v-3.5h5.6v10.7h5.6v-10.7h5.6v3.5h5.5v-3.5h5.6v3.5h11.2v3.6h-5.6v3.6h-5.6v-3.6h-11.1v3.6h5.5v3.5h39.1v3.6h-5.6v3.5h-5.6v-3.5h-5.5v3.5h-5.6v-3.5h-16.8v3.5h5.6v3.6h-11.1v-10.7h-5.6v10.7h-5.6v-10.7h-5.6v3.6h-5.6v-7.1h5.6v-3.6h-11.1v7.1h-5.6v-7.1h-5.6v-3.6h-5.6v3.6h-5.5v-3.6h-5.6v7.2h16.7v3.5h-11.1v3.6h5.5v3.5h5.6v-3.5h5.6v3.5h16.7v3.6h-5.6v7.1h5.6v-3.6h5.6v3.6h5.6v-3.6h5.6v3.6h5.5v-3.6h5.6v3.6h5.6v-7.1h5.6v7.1h5.6v-7.1h5.5v3.5h5.6v-3.5h5.6v7.1h-11.2v3.6h16.8v-10.7h11.1v3.5h-5.5v3.6h5.5v3.6h-5.5v3.5h-5.6v3.6h11.1v-3.6h22.3v3.6h-16.7v3.5h-22.3v-7.1h-16.7v-3.5h-39.1v3.5h33.5v3.6h16.7v3.5h-16.7v3.6h44.6v3.6h5.6v3.5h-11.2v-3.5h-11.1v3.5h-5.6v-3.5h-5.6v3.5h-5.6v-3.5h-5.5v10.6h5.5v-3.5h5.6v3.5h11.2v-3.5h11.1v3.5h-5.5v3.6h-16.8v7.1h5.6v-3.5h5.6v3.5h11.1v-3.5h5.6v-10.7h5.6v7.1h11.1v7.1h-5.5v-3.5h-5.6v3.5h-5.6v3.6h11.2v3.5h-11.2v3.6h5.6v7.1h-5.6v-3.5h-5.6v-10.7h-16.7v3.5h11.2v10.7h-5.6v-7.1h-5.6v10.7h5.6v7.1h-5.6v-3.6h-5.6v-21.3h-5.6v21.3h-5.5v-17.8h-5.6v17.8h-5.6v-17.8h-5.6v-3.5h16.8v-3.6h5.5v-7.1h-11.1v7.1h-5.6v-7.1h-5.6v-3.6h11.2v-3.5h-5.6v-3.6h5.6v-3.5h-5.6v-10.7h-5.6v17.8h-5.6v-10.7h-5.5v-3.6h5.5v-3.5h-11.1v10.7h5.6v3.5h-5.6v3.6h-5.6v3.5h16.7v3.6h-22.3v-10.7h5.6v-14.2h-5.6v-7.1h-5.6v7.1h-5.5v-3.6h-5.6v-3.5h5.6v-10.7h-11.2v3.5h5.6v3.6h-5.6v7.1h-5.6v-7.1h-5.5v-3.6h5.5v-3.5h-5.5v-3.6h-5.6v14.3h5.6v3.5h-5.6v3.6h11.1v3.5h5.6v-3.5h5.6v3.5h16.7v7.2h-5.6v-3.6h-11.1v3.6h-5.6v-3.6h-5.6v7.1h5.6v3.6h-5.6v3.5h11.2v-7.1h5.6v3.6h5.5v3.5h-5.5v3.6h-11.2v3.6h11.2v3.5h5.5v3.6h5.6v-7.1h27.9v3.5h-22.3v3.6h16.7v3.5h-27.9v7.2h5.6v-3.6h5.6v3.6h11.2v-3.6h11.1v3.6h-5.6v3.5h5.6v10.7h-5.6v-7.1h-5.5v-3.6h-16.8v3.6h11.2v3.5h-11.2v3.6h5.6v3.5h-5.6v3.6h11.2v-7.1h5.6v3.5h11.1v3.6h-11.1v3.6h11.1v3.5h-11.1v7.1h-5.6v-10.6h-11.2v3.5h5.6v3.6h-5.6v3.5h5.6v3.6h-11.2v-14.2h-5.5v7.1h-5.6v7.1h-5.6v3.6h-5.6v3.5h-5.5v-7.1h5.5v-3.6h5.6v-3.5h-11.1v-3.6h16.7v-3.5h-11.2v-3.6h22.3v-3.6h-5.5v-3.5h5.5v-3.6h-5.5v-3.5h5.5v-3.6h-11.1v14.2h-5.6v-14.2h-5.6v7.1h-5.5v-10.6h22.3v-3.6h-5.6v-3.6h5.6v-3.5h-5.6v-3.6h-5.6v10.7h-5.6v-17.8h-5.5v7.1h-5.6v3.6h5.6v3.5h-5.6v3.6h-5.6v-14.2h5.6v-3.6h-11.2v3.6h-5.6v-7.2h5.6v-3.5h5.6v3.5h11.2v-7.1h-11.2v-3.5h11.2v-7.2h-5.6v3.6h-5.6v-10.7h-5.6v17.8h-5.6v-7.1h-5.5v-3.6h5.5v-3.5h-16.7v-3.6h16.7v-3.5h11.2v-14.3h-5.6v10.7h-5.6v-14.2h16.8v-3.6h-5.6v-3.5h-5.6v3.5h-5.6v-10.7h5.6v3.6h5.6v-7.1h-5.6v-7.1h-5.6v7.1h-5.5v-10.7h-16.8v3.6h11.2v3.5h-5.6v3.6h5.6v3.5h5.6v7.2h-5.6v3.5h5.6v21.4h-5.6v-14.3h-5.6v-17.8h-5.6v17.8h-5.6v3.6h11.2v3.5h-5.6v3.6h5.6v3.6h-11.2v7.1h5.6v3.5h11.2v7.2h5.6v3.5h-5.6v3.6h5.6v3.5h-11.2v3.6h11.2v7.1h11.1v7.1h-5.6v-3.5h-5.5v7.1h11.1v3.6h11.2v10.6h-5.6v-7.1h-5.6v7.1h-5.6v-10.6h-5.5v10.6h-5.6v3.6h39v3.5h-11.1v3.6h5.6v3.6h-5.6v7.1h-16.8v-3.6h11.2v-3.5h-5.6v-3.6h5.6v-3.6h-11.2v7.2h-5.5v-7.2h-5.6v7.2h-5.6v10.6h-5.6v-10.6h-5.6v14.2h-5.5v-10.7h-5.6v-3.5h5.6v-3.6h16.7v-7.1h-5.6v3.5h-16.7v-3.5h11.1v-3.6h11.2v-3.5h5.6v-24.9h-5.6v7.1h-5.6v3.5h5.6v10.7h-5.6v3.6h-5.6v-3.6h-5.5v-3.5h11.1v-3.6h-5.6v-7.1h-5.5v7.1h-5.6v10.7h5.6v3.5h-16.8v7.1h-5.5v-7.1h-5.6v-3.5h16.7v-3.6h-5.6v-3.5h5.6v-3.6h-5.6v-3.6h11.2v-7.1h16.7v-3.5h-16.7v-3.6h16.7v-3.6h-5.6v-3.5h11.2v-3.6h-5.6v-3.5h5.6v-3.6h-11.2v-3.6h-5.5v7.2h5.5v3.5h-5.5v7.1h-5.6v-17.8h-5.6v28.5h-5.6v3.6h-5.5v14.2h-5.6v-17.8h5.6v-3.5h5.5v-7.2h-5.5v-3.5h5.5v-3.6h-5.5v-3.5h5.5v-3.6h-5.5v-3.6h5.5v-3.5h16.8v-3.6h-16.8v-3.5h16.8v-3.6h5.5v-3.6h-5.5v-10.6h5.5v-3.6h-5.5v-3.5h-5.6v-3.6h11.1v-7.1h5.6v-3.6h-5.6v-7.1h-5.5v14.2h-5.6v-3.5h-5.6v-3.6h5.6v-17.8h-5.6v-10.7h-5.6v3.6h-5.5v3.6h5.5v3.5h-5.5v3.6h11.1v3.5h-5.6v3.6h5.6v3.6h-11.1v3.5h5.5v3.6h-5.5v3.5h-5.6v-14.2h5.6v-3.6h-5.6v-3.5h-5.6v14.2h-5.6v3.6h5.6v3.5h-5.6v3.6h22.3v-3.6h5.6v10.7h5.6v17.8h-5.6v-3.6h-11.1v-3.5h11.1v-3.6h-5.6v-10.6h-5.5v3.5h-5.6v3.6h5.6v3.5h-5.6v10.7h5.6v3.6h-11.2v-24.9h-5.6v28.4h16.8v3.6h-5.6v28.5h-5.6v-14.3h-5.6v3.6h-11.1v3.5h11.1v3.6h-5.6v3.6h5.6v7.1h5.6v3.5h-5.6v7.2h5.6v14.2h5.6v7.1h-5.6v-3.6h-5.6v-3.5h-5.6v-3.6h5.6v-7.1h-5.6v-3.5h-5.5v-3.6h5.5v-3.6h-16.7v-3.5h16.7v-3.6h-5.5v-7.1h-5.6v7.1h-5.6v-10.7h5.6v-10.6h5.6v3.5h5.5v-3.5h11.2v-10.7h-5.6v7.1h-16.7v-3.6h11.1v-3.5h-5.5v-3.6h5.5v-32h-5.5v-3.6h5.5v-3.5h-5.5v-3.6h5.5v-3.5h5.6v-3.6h-5.6v-7.1h5.6v-3.6h11.2v-10.7h-5.6v7.2h-5.6v-10.7h11.2v-3.6h-5.6v-3.5h-5.6v3.5h-5.6v3.6h-5.5v-24.9h-5.6v28.4h11.1v3.6h-5.5v3.6h5.5v3.5h-5.5v3.6h-5.6v3.5h5.6v7.2h-5.6v3.5h-5.6v-17.8h5.6v-7.1h-5.6v3.6h-5.6v7.1h-5.6v3.5h5.6v3.6h-5.6v3.6h5.6v3.5h-11.1v-10.7h-5.6v-3.5h-5.6v7.1h5.6v7.1h-5.6v-3.5h-5.6v-7.2h-5.6v10.7h5.6v7.1h5.6v-3.5h33.5v3.5h-5.6v3.6h5.6v3.6h5.6v3.5h-5.6v3.6h5.6v3.5h-5.6v3.6h5.6v10.7h-5.6v-7.2h-5.6v-7.1h-5.6v-7.1h5.6v-3.5h-5.6v-7.2h-5.6v3.6h-5.5v-3.6h-5.6v7.2h11.1v10.6h-5.5v-7.1h-5.6v10.7h16.7v7.1h5.6v7.1h5.6v3.6h-5.6v3.5h-5.6v-10.6h-5.6v-7.2h-5.5v14.3h5.5v3.5h-11.1v-17.8h-5.6v-21.3h-5.6v14.2h-5.6v7.1h5.6v3.6h-5.6v7.1h5.6v-3.5h5.6v7.1h-11.2v7.1h5.6v-3.6h5.6v3.6h27.9v3.6h-27.9v3.5h27.9v3.6h-5.6v3.5h-5.6v-3.5h-16.7v3.5h11.2v3.6h11.1v3.6h-11.1v3.5h11.1v3.6h-11.1v7.1h5.5v-3.6h5.6v3.6h11.2v3.6h-5.6v3.5h11.2v3.6h-11.2v3.5h11.2v7.1h-5.6v-3.5h-11.2v-7.1h-5.6v-3.6h5.6v-3.5h-16.7v-7.2h-5.6v10.7h11.2v3.6h-11.2v3.5h16.7v3.6h-11.1v10.7h-5.6v-10.7h-5.6v-7.1h-5.6v10.6h5.6v3.6h-11.1v-17.8h11.1v-3.5h-11.1v-3.6h11.1v-7.1h11.2v-10.7h-5.6v7.1h-5.6v-21.3h-5.6v28.4h-5.5v-24.9h-5.6v14.3h-5.6v3.5h5.6v7.1h-5.6v-3.5h-5.6v-7.1h-11.1v7.1h5.6v3.5h-5.6v3.6h5.6v3.6h5.5v-3.6h5.6v3.6h5.6v7.1h-5.6v-3.6h-5.6v10.7h5.6v-3.6h5.6v7.1h-5.6v3.6h-5.6v-3.6h-5.5v7.2h-5.6v-7.2h-5.6v-3.5h11.2v-3.6h-5.6v-3.5h5.6v-3.6h-5.6v-3.5h-5.6v10.6h-5.6v10.7h-5.6v-14.2h5.6v-7.1h-5.6v-3.6h11.2v-7.1h-5.6v3.5h-5.6v-7.1h11.2v-7.1h22.3v-3.6h-22.3v-3.5h22.3v-3.6h-5.6v-3.5h16.8v-3.6h-22.3v3.6h-5.6v3.5h-5.6v-7.1h5.6v-3.6h27.9v-3.5h-11.2v-3.6h11.2v-17.8h-11.2v7.1h5.6v3.6h-5.6v3.6h-5.6v3.5h-5.5v3.6h-5.6v-3.6h-11.2v3.6h5.6v3.5h-5.6v10.7h-5.6v-3.5h-5.5v-3.6h5.5v-14.2h11.2v-3.6h5.6v3.6h5.6v-3.6h5.5v-3.6h-11.1v-3.5h11.1v-7.1h22.3v-3.6h-11.1v-3.5h11.1v-10.7h-5.5v7.1h-5.6v-10.7h5.6v-14.2h5.5v-3.6h27.9v-3.5h-5.5v-3.6h11.1v-3.6h5.6v-10.6h-11.2v3.5h5.6v3.6h-5.6v3.5h-5.5v-14.2h11.1v-3.6h5.6v-3.5h-11.2v3.5h-5.5v-10.6h-5.6v-7.2h5.6v-3.5h-11.2v-3.6h-5.6v7.1h5.6v10.7h5.6v3.6h-5.6v3.5h5.6v3.6h-5.6v3.6h5.6v17.8h-5.6v-7.2h-5.6v7.2h-5.6v-10.7h11.2v-3.6h-11.2v-7.1h5.6v-3.6h-5.6v-3.5h5.6v-10.7h-11.1v3.6h5.5v3.5h-5.5v10.7h-5.6v-14.2h-5.6v10.6h-5.6v-10.6h-5.5v3.5h-5.6v-7.1h-5.6v10.7h11.2v7.1h11.1v3.6h11.2v3.5h-11.2v7.1h5.6v-3.5h5.6v14.2h-5.6v-7.1h-5.6v7.1h-5.6v-3.5h-5.5v7.1h16.7v3.5h-11.2v3.6h11.2v3.6h-11.2v3.5h5.6v17.8h-5.6v-14.2h-5.5v21.3h-5.6v-24.9h5.6v-3.5h-11.2v17.8h-5.6v-7.2h-5.6v10.7h11.2v14.2h-5.6v-10.6h-5.6v7.1h-5.5v-10.7h-5.6v14.2h11.1v3.6h-11.1v3.6h5.6v3.5h-5.6v3.6h5.6v3.5h-5.6v10.7h5.6v3.6h11.1v10.7h-5.6v-7.2h-5.5v35.6h-5.6v-3.5h-5.6v-3.6h5.6v-32h-5.6v-49.8h5.6v-3.6h5.6v-7.1h5.5v-3.6h5.6v-7.1h16.8v-3.6h-5.6v-10.6h-5.6v10.6h-5.6v-14.2h22.3v-3.6h-11.1v-3.5h11.1v-7.1h-5.5v3.5h-5.6v-10.7h-5.6v17.8h-5.6v-28.4h-5.6v46.2h-5.5v3.6h5.5v3.6h-5.5v3.5h-5.6v-3.5h-5.6v7.1h5.6v3.5h-5.6v3.6h-5.6v3.6h-5.6v-3.6h-5.5v7.1h11.1v49.8h5.6v25h-5.6v-21.4h-5.6v-7.1h-5.5v10.7h5.5v21.3h5.6v3.6h-5.6v3.5h-5.5v3.6h5.5v3.5h5.6v3.6h-11.1v-3.6h-5.6v-10.6h5.6v-7.1h-5.6v-3.6h5.6v-10.7h-5.6v-21.3h5.6v3.5h5.5v-7.1h-5.5v-3.6h5.5v-14.2h-5.5v-3.6h5.5v-10.6h-5.5v7.1h-5.6v-21.4h11.1v-3.5h5.6v-10.7h11.2v-3.6h-11.2v-7.1h5.6v3.6h5.6v-3.6h5.6v-7.1h-5.6v3.6h-5.6v-7.2h11.2v-7.1h-5.6v3.6h-5.6v-7.1h11.2v-25h-5.6v21.4h-5.6v-17.8h-5.6v10.7h-5.6v3.5h5.6v3.6h-11.1v-10.7h-5.6v7.1h-11.2v3.6h11.2v3.6h16.7v7.1h-5.6v3.5h5.6v7.2h-5.6v14.2h-5.5v3.6h5.5v3.5h-5.5v3.6h-5.6v-14.3h5.6v-24.9h-5.6v14.3h-5.6v-17.8h-5.6v7.1h-5.6v3.5h5.6v3.6h-5.6v3.6h5.6v3.5h11.2v3.6h-5.6v46.2h5.6v3.6h-5.6v7.1h5.6v-3.5h5.6v7.1h-5.6v7.1h-5.6v3.6h-5.6v3.5h5.6v21.4h5.6v3.5h-5.6v14.3h-5.6v-3.6h-5.6v-3.5h5.6v-7.2h-5.6v-3.5h5.6v-3.6h-5.6v-3.5h5.6v-3.6h-5.6v-3.6h5.6v-3.5h-5.6v-10.7h5.6v-3.6h5.6v-3.5h-5.6v-3.6h-5.6v7.1h-5.5v49.9h-5.6v-7.1h-5.6v-3.6h5.6v-3.6h-5.6v-3.5h5.6v-10.7h-5.6v-3.6h5.6v-7.1h-5.6v-3.5h5.6v-7.2h-5.6v-3.5h11.2v-7.1h11.1v-3.6h-5.6v-3.6h5.6v-46.2h-5.6v32h-5.5v3.6h5.5v3.5h-5.5v10.7h-5.6v-10.7h-5.6v-3.5h5.6v-3.6h-5.6v-7.1h5.6v3.6h5.6v-7.2h-5.6v-7.1h5.6v-10.7h-5.6v-3.5h-5.6v-3.6h11.2v-3.5h-5.6v-3.6h-5.6v3.6h-11.1v3.5h5.5v3.6h-5.5v3.5h11.1v3.6h5.6v3.6h-5.6v10.6h-5.6v-14.2h-5.5v17.8h5.5v17.8h5.6v3.5h-5.6v7.2h11.2v3.5h-11.2v3.6h-5.5v-32h-5.6v-28.5h-5.6v-3.6h-5.6v7.1h5.6v3.6h-5.6v3.6h5.6v3.5h-16.7v-3.5h5.5v-14.3h-5.5v3.6h-5.6v3.5h5.6v3.6h-11.2v-7.1h-5.6v14.2h5.6v-3.5h5.6v7.1h22.3v3.5h-5.6v3.6h5.6v7.1h5.6v7.1h-5.6v3.6h5.6v21.3h11.1v7.2h-5.5v-3.6h-5.6v7.1h11.1v14.3h5.6v3.5h-5.6v14.3h-5.5v-28.5h-5.6v7.1h-5.6v3.6h5.6v21.3h5.6v7.1h-5.6v-3.5h-5.6v-3.6h-5.6v-3.5h5.6v-3.6h-5.6v-3.6h5.6v-7.1h-5.6v-10.7h5.6v-3.5h-5.6v-3.6h5.6v-28.5h-5.6v25h-5.6v-7.2h-5.5v-3.5h5.5v-17.8h5.6v-10.7h-5.6v-10.7h-11.1v3.6h5.6v10.7h5.5v3.5h-5.5v17.8h-5.6v14.3h5.6v3.5h5.5v3.6h-5.5v3.5h5.5v3.6h-5.5v7.1h5.5v3.6h-5.5v7.1h-11.2v7.1h-5.6v-7.1h-5.6v-3.6h16.8v-3.5h-5.6v-3.6h5.6v-10.7h-11.2v3.6h5.6v3.6h-5.6v7.1h-5.6v-3.6h-5.5v-3.5h5.5v-10.7h16.8v-3.6h-11.2v-3.5h5.6v-14.3h-5.6v-3.5h11.2v-24.9h-5.6v-10.7h-11.2v3.5h5.6v3.6h-5.6v3.6h5.6v3.5h5.6v17.8h-5.6v-14.2h-5.6v17.8h-11.1v3.5h11.1v7.1h5.6v3.6h-5.6v3.6h-5.5v-10.7h-5.6v14.2h5.6v10.7h-5.6v-7.1h-5.6v10.7h5.6v3.5h-11.2v3.6h5.6v3.5h5.6v-3.5h5.6v7.1h-16.8v-3.6h-5.5v10.7h5.5v-3.5h5.6v3.5h5.6v-3.5h5.6v3.5h5.5v7.1h-5.5v-3.5h-5.6v3.5h-5.6v-3.5h-11.1v7.1h-5.6v-24.9h5.6v-7.1h5.5v-14.3h5.6v-3.5h-5.6v-3.6h5.6v-3.6h-5.6v-3.5h5.6v-3.6h-5.6v-3.5h5.6v-3.6h11.2v-17.8h-5.6v14.2h-5.6v-14.2h-5.6v17.8h-5.5v7.1h-11.2v-3.5h5.6v-7.2h5.6v-14.2h-5.6v7.1h-5.6v10.7h-5.6v3.6h-5.6v7.1h11.2v3.5h5.6v-3.5h5.6v7.1h-5.6v3.6h5.6v14.2h-5.6v-10.7h-5.6v-7.1h-5.6v-3.6h-5.6v7.2h5.6v3.5h-5.6v3.6h11.2v3.5h-5.6v7.2h11.2v3.5h-11.2v3.6h5.6v3.5h-11.2v-17.8h-5.5v-32h5.5v-3.6h5.6v-7.1h-5.6v-3.5h11.2v-3.6h-22.3v3.6h5.6v3.5h-5.6v3.6h5.6v3.5h-5.6v39.2h5.6v3.6h-5.6v3.5h5.6v3.6h-5.6v7.1h22.3v21.3h-5.6v-17.7h-5.6v7.1h-5.5v-7.1h-5.6v10.6h11.1v3.6h-5.5v3.5h-5.6v-3.5h-5.6v-3.6h-5.6v-3.5h5.6v-3.6h-11.2v7.1h-5.5v-7.1h-5.6v-3.5h22.3v-14.3h-5.6v-3.5h5.6v-3.6h-11.2v10.7h5.6v7.1h-5.6v-3.6h-5.5v3.6h-5.6v-3.6h-5.6v7.2h-5.6v-7.2h-5.6v3.6h-5.5v-7.1h27.9v-3.6h-11.2v-3.5h11.2v-3.6h-11.2v-3.6h16.7v-3.5h5.6v3.5h5.6v-39.1h-5.6v32h-5.6v-10.7h-5.5v7.2h-5.6v3.5h5.6v3.6h-11.2v-10.7h5.6v-3.6h-11.2v28.5h-5.6v-7.1h-5.5v-3.6h5.5v-7.1h-5.5v3.6h-5.6v10.7h5.6v3.5h-5.6v3.6h-5.6v-14.3h-5.6v10.7h-5.5v3.6h-22.4v-3.6h5.6v-3.5h5.6v3.5h5.6v-3.5h5.6v-3.6h-5.6v-3.6h5.6v-3.5h11.1v-3.6h5.6v-3.5h11.1v-3.6h-5.5v-3.6h5.5v-3.5h5.6v-3.6h5.6v3.6h16.7v-3.6h-5.5v-3.5h5.5v-7.2h-11.1v7.2h-5.6v-7.2h-5.6v7.2h-5.6v-3.6h-5.5v10.7h-11.2v3.5h5.6v3.6h-5.6v3.6h-5.6v-3.6h-5.5v-3.6h5.5v-7.1h-5.5v-3.5h11.1v3.5h5.6v-7.1h-27.9v3.6h5.6v17.8h5.6v3.5h-5.6v3.6h-5.6v-7.1h-5.6v10.6h-5.6v-14.2h11.2v-3.6h-5.6v-3.5h5.6v-3.6h-5.6v-3.5h-5.6v3.5h-5.5v-7.1h-11.2v7.1h5.6v3.6h11.1v3.5h-5.5v10.7h-5.6v-10.7h-5.6v-3.5h-11.2v3.5h5.6v3.6h5.6v3.6h-5.6v3.5h5.6v3.6h-11.2v-3.6h-5.5v-3.5h5.5v-3.6h-5.5v-3.6h-5.6v14.3h-5.6v-10.7h-5.6v3.6h-11.1v-3.6h5.5v-7.1h-5.5v3.5h-5.6v10.7h-5.6v-3.5h-5.6v-3.6h5.6v-3.6h-5.6v-3.5h-5.5v-3.6h11.1v3.6h5.6v-7.1h-5.6v-3.6h11.2v7.1h11.1v7.1h5.6v-3.5h11.2v-3.6h11.1v-3.5h-16.7v3.5h-5.6v-3.5h-11.2v-3.6h16.8v-3.6h-33.5v-3.5h5.6v-3.6h5.6v3.6h5.5v-3.6h5.6v3.6h11.2v-7.1h-22.3v-10.7h5.5v7.1h22.4v17.8h11.1v-3.6h16.8v-3.5h-22.4v-3.6h27.9v10.7h5.6v-10.7h5.6v7.1h11.2v-3.5h-5.6v-3.6h11.1v7.1h22.3v-7.1h5.6v3.6h5.6v-3.6h5.6v3.6h11.1v-3.6h11.2v-3.5h-11.2v-3.6h-5.5v3.6h-5.6v-3.6h-11.2v3.6h-5.6v-3.6h-5.5v10.7h-11.2v-3.6h5.6v-7.1h-5.6v3.6h-5.6v-3.6h-5.5v3.6h-5.6v-3.6h-5.6v3.6h-5.6v-3.6h-5.6v3.6h-5.5v-3.6h-11.2v3.6h-11.2v-3.6h5.6v-3.5h-27.9v-3.6h11.2v-7.1h5.6v7.1h11.1v-3.6h-5.6v-3.5h5.6v-3.6h11.2v3.6h-5.6v10.7h5.6v-7.2h5.6v-7.1h5.5v10.7h-5.5v3.6h11.1v-10.7h5.6v10.7h16.7v-7.2h-5.5v3.6h-5.6v-7.1h5.6v-3.6h-11.2v-3.5h-5.6v-3.6h11.2v3.6h5.6v-3.6h5.5v10.7h5.6v10.7h5.6v-10.7h5.6v10.7h11.1v-3.6h-5.6v-7.1h5.6v3.5h5.6v7.2h22.3v3.5h5.6v-7.1h-22.3v-3.6h27.9v7.2h55.8v-7.2h-5.6v3.6h-5.6v-3.6h-5.6v3.6h-5.5v-3.6h-5.6v3.6h-22.3v-3.6h11.1v-3.5h11.2v-3.6h-11.2v-3.5h-5.6v7.1h-33.4v-3.6h-5.6v3.6h-5.6v-3.6h-27.9v-3.5h5.6v-3.6h5.6v3.6h5.5v-3.6h5.6v3.6h16.8v-3.6h-11.2v-3.6h16.7v10.7h22.4v-3.5h-16.8v-3.6h5.6v-3.6h5.6v3.6h5.6v-3.6h5.5v3.6h5.6v-3.6h5.6v3.6h5.6v3.6h5.6v7.1h5.5v-3.6h5.6v3.6h5.6v-7.1h5.6v3.5h5.5v-10.7h-5.5v3.6h-5.6v-3.6h-5.6v7.2h-5.6v-3.6h-5.5v-3.6h-5.6v-3.5h16.7v-7.1h-5.6v3.5h-11.1v-3.5h-5.6v7.1h-50.2v-3.6h16.7v-3.5h-5.6v-3.6h11.2v7.1h22.3v-3.5h-16.7v-3.6h39v-3.6h-11.1v-3.5h-5.6v3.5h-16.7v-3.5h11.1v-3.6h16.8v-3.5h-22.4v3.5h-5.5v-3.5h-5.6v10.6h-5.6v-14.2h-5.6v14.2h-5.6v-3.5h-5.5v7.1h-5.6v3.6h-5.6v3.5h-5.6v7.1h-11.1v-3.5h5.5v-3.6h-5.5v-3.5h11.1v-3.6h5.6v-3.6h5.6v-3.5h-11.2v3.5h-11.1v3.6h-5.6v10.7h-5.6v3.5h-5.6v-3.5h-5.5v-3.6h-5.6v7.1h-5.6v-7.1h-5.6v-3.5h22.3v3.5h5.6v-7.1h-5.6v-3.6h-5.5v3.6h-5.6v-3.6h-5.6v3.6h-5.6v-7.1h22.3v-3.6h-27.9v21.4h5.6v3.5h-5.6v3.6h-5.5v3.6h-5.6v-3.6h-5.6v3.6h-5.6v-7.2h16.8v-10.6h-5.6v7.1h-11.2v-3.6h5.6v-3.5h-5.6v-3.6h16.8v-3.6h-5.6v-3.5h5.6v-3.6h-11.2v3.6h-5.6v3.5h-5.6v21.4h-11.1v-3.6h5.6v-3.5h-11.2v3.5h-5.6v-3.5h-5.6v-3.6h22.4v-3.5h-16.8v-3.6h16.8v-3.6h-16.8v-7.1h5.6v3.6h5.6v-3.6h5.6v3.6h5.5v-3.6h5.6v-3.5h-22.3v-7.2h5.6v3.6h22.3v3.6h5.6v-3.6h5.6v3.6h11.1v-7.2h11.2v3.6h-5.6v3.6h16.7v-3.6h5.6v3.6h11.2v3.5h-11.2v7.1h5.6v-3.5h11.1v-3.6h5.6v-3.5h5.6v3.5h5.6v-3.5h5.6v3.5h5.5v-7.1h-11.1v-3.6h-5.6v3.6h-5.6v-7.1h16.8v3.5h5.5v-3.5h5.6v3.5h5.6v-3.5h5.6v7.1h5.6v-3.6h5.5v3.6h5.6v-7.1h5.6v7.1h5.6v-7.1h5.6v3.5h5.5v14.3h5.6v-14.3h5.6v17.8h-5.6v3.6h5.6v3.6h5.6v3.5h-5.6v3.6h11.1v-3.6h5.6v-3.5h-5.6v-3.6h-5.5v-3.6h16.7v10.7h5.6v-10.7h5.6v7.2h22.3v-3.6h-16.8v-3.6h22.4v3.6h5.5v-3.6h16.8v-3.5h-5.6v-3.6h-5.6v3.6h-39v-7.1h-11.2v3.5h5.6v3.6h-22.3v-10.7h5.5v7.1h5.6v-7.1h22.3v7.1h5.6v-3.5h5.6v3.5h5.6v-3.5h5.6v3.5h5.5v-3.5h16.8v3.5h5.5v-7.1h-5.5v-3.6h-5.6v3.6h-33.5v-3.6h-39v-3.5h44.6v3.5h16.7v-3.5h11.2v-3.6h-16.7v3.6h-5.6v-3.6h-5.6v-3.5h5.6v-3.6h5.6v3.6h5.5v-3.6h11.2v3.6h5.6v7.1h5.5v-3.6h5.6v3.6h5.6v-7.1h16.7v-3.6h-16.7v-3.6h-5.6v7.2h-5.6v-3.6h-5.5v-3.6h-11.2v-3.5h5.6v-3.6h11.1v3.6h16.8v3.5h16.7v-7.1h-5.6v3.6h-5.5v-3.6h-5.6v-3.5h-5.6v3.5h-5.6v-7.1h11.2v-3.5h5.6v-3.6h-5.6v-3.6h11.1v-3.5h-11.1v-3.6h-5.6v-3.5h-5.6v7.1h5.6v3.5h-5.6v3.6h5.6v3.6h-11.2v7.1h-5.5v-7.1h-5.6v7.1h-5.6v3.5h-5.6v7.1h-5.5v-7.1h-5.6v7.1h-5.6v3.6h-5.6v7.1h-16.7v-3.5h11.1v-3.6h-5.5v-3.6h11.1v-3.5h-22.3v3.5h5.6v3.6h-5.6v7.1h-11.2v-3.5h5.6v-3.6h-11.1v7.1h-5.6v3.6h-11.2v-3.6h5.6v-3.5h-11.1v3.5h-5.6v-7.1h-5.6v7.1h-5.6v-3.5h-5.6v7.1h-5.5v-7.1h-11.2v3.5h-16.7v-3.5h11.1v-7.2h-5.6v3.6h-5.5v-3.6h-5.6v10.7h-5.6v-10.7h-5.6v7.2h-5.6v14.2h-5.5v-14.2h-5.6v10.6h-5.6v-3.5h-5.6v3.5h-5.5v-7.1h11.1v-3.5h-16.7v7.1h-16.8v3.5h-5.5v-3.5h-11.2v3.5h-5.6v-3.5h-5.6v3.5h-5.5v-3.5h-16.8v-3.6h11.2v-3.5h-22.3v-3.6h22.3v-3.6h-5.6v-3.5h5.6v-3.6h5.6v17.8h5.5v-7.1h5.6v7.1h16.8v-3.5h-11.2v-7.2h-5.6v-3.5h5.6v-3.6h-11.2v-3.5h5.6v-3.6h5.6v3.6h5.6v14.2h11.1v7.1h11.2v-3.5h-5.6v-3.6h16.8v-3.6h-27.9v-7.1h5.5v3.6h22.4v-3.6h-16.8v-3.5h16.8v-3.6h-5.6v-3.5h11.1v21.3h11.2v-3.6h5.6v3.6h5.5v-7.1h-16.7v-10.7h5.6v7.1h5.6v-7.1h11.1v3.6h-5.6v3.5h5.6v3.6h22.3v-3.6h-16.7v-3.5h16.7v-3.6h-5.5v-3.5h-5.6v3.5h-5.6v-7.1h-5.6v3.6h-5.6v-3.6h-11.1v3.6h-5.6v-3.6h-11.1v-3.6h44.6v3.6h11.1v3.6h5.6v7.1h5.6v3.5h-5.6v3.6h11.2v3.5h-5.6v3.6h11.2v-3.6h5.5v3.6h5.6v-3.6h16.8v3.6h5.5v-3.6h5.6v3.6h5.6v-3.6h11.1v-3.5h5.6v-3.6h22.3v-7.1h5.6v7.1h5.6v-3.5h16.7v-3.6h-5.5v-3.5h-5.6v3.5h-5.6v-3.5h-5.6v-3.6h-5.6v3.6h-5.5v7.1h-5.6v-14.3h27.9v3.6h11.1v3.6h5.6v-3.6h16.7v-3.6h-5.5v-3.5h-5.6v3.5h-16.7v-3.5h11.1v-3.6h-16.7v3.6h-11.2v-3.6h-5.6v3.6h-16.7v17.8h-5.6v-3.6h-5.6v-3.5h5.6v-3.6h-11.1v10.7h5.5v3.5h-5.5v3.6h-5.6v-14.2h-5.6v3.5h-5.6v3.6h5.6v7.1h-5.6v-3.6h-5.5v3.6h-5.6v-3.6h-5.6v3.6h-5.6v-3.6h-5.6v3.6h-5.5v-3.6h-5.6v-3.5h33.5v-3.6h-39.1v-3.5h5.6v-3.6h5.6v3.6h11.1v-3.6h5.6v-3.6h-5.6v-3.5h-5.6v3.5h-16.7v3.6h-5.6v-7.1h-5.6v3.5h-5.5v-3.5h-33.5v-3.6h-5.6v3.6h-5.6v-3.6h-11.1v3.6h-5.6v3.5h5.6v3.6h-11.2v3.6h5.6v3.5h-11.2v3.6h-5.5v-3.6h-5.6v-3.5h11.1v-3.6h-5.5v-3.6h11.1v-3.5h-16.7v7.1h-11.2v-3.6h5.6v-3.5h-11.2v14.2h-5.5v-10.7h-5.6v7.2h-5.6v3.5h5.6v3.6h-5.6v3.5h-11.2v7.1h-5.5v-10.6h11.1v-10.7h5.6v-3.6h-11.2v-3.5h-5.5v-3.6h5.5v-3.5h5.6v7.1h5.6v-3.6h5.6v3.6h5.6v-3.6h5.5v-3.5h-11.1v-3.6h5.6v-3.6h-11.2v3.6h-11.2v-3.6h5.6v-3.5h16.8v-3.6h11.1v3.6h-5.6v7.1h5.6v7.1h5.6v-7.1h5.6v7.1h5.6v-7.1h11.1v3.6h-5.6v3.5h11.2v-10.7h-27.9v-3.5h16.7v-3.6h-11.1v-3.5h-11.2v-3.6h5.6v-3.6h5.6v3.6h5.6v3.6h11.1v7.1h5.6v-3.6h5.6v-3.5h5.6v3.5h5.5v3.6h-11.1v3.5h5.6v3.6h-5.6v3.6h11.1v-7.2h5.6v7.2h11.2v3.5h22.3v-3.5h-11.2v-3.6h-5.6v-3.6h-5.5v3.6h-5.6v-7.1h-5.6v-3.6h5.6v-7.1h-5.6v-7.1h-5.6v7.1h-27.9v-3.6h22.4v-3.5h-22.4v-3.6h39.1v7.1h5.6v14.3h5.5v-10.7h5.6v14.2h5.6v3.6h5.6v-10.7h-5.6v-3.5h11.2v7.1h11.1v3.5h-11.1v10.7h5.5v-7.1h5.6v7.1h5.6v3.6h11.2v-3.6h16.7v-3.5h-11.2v-3.6h16.8v3.6h5.6v3.5h-5.6v3.6h5.6v7.1h-5.6v3.6h11.1v-10.7h5.6v7.1h5.6v-3.6h11.1v-3.5h5.6v-3.6h-11.1v3.6h-5.6v-3.6h-11.2v-3.5h5.6v-3.6h5.6v3.6h5.6v-3.6h5.5v3.6h5.6v-3.6h5.6v3.6h5.6v3.5h5.6v-3.5h16.7v-3.6h-11.2v-3.6h-5.5v3.6h-5.6v-3.6h-22.3v-3.5h22.3v-3.6h-5.6v-3.5h-5.6v3.5h-16.7v7.1h-11.2v3.6h-5.5v-3.6h-27.9v3.6h-5.6v3.6h-5.6v-7.2h5.6v-3.5h44.6v-3.6h-5.6v-3.5h22.3v-3.6h16.8v3.6h11.1v3.5h-5.5v3.6h11.1v-3.6h11.2v3.6h-5.6v3.5h5.6v7.2h11.1v-3.6h-5.5v-7.1h5.5v3.5h5.6v7.2h5.6v-7.2h5.6v-3.5h-11.2v-3.6h16.7v7.1h11.2v-3.5h-5.6v-3.6h11.2v3.6h5.6v-7.1h5.5v-3.6h-11.1v3.6h-5.6v-7.2h-5.6v7.2h-5.6v-7.2h-5.5v7.2h-16.8v3.5h-5.5v-7.1h-5.6v3.6h-11.2v-7.2h22.3v3.6h11.2v-3.6h-5.6v-3.5h-11.1v-3.6h-5.6v3.6h-11.2v-3.6h-5.6v10.7h-5.5v-3.6h-22.4v-3.5h22.4v-3.6h-27.9v10.7h-5.6v-3.6h-5.6v3.6h-5.6v-3.6h-5.5v10.7h-5.6v-3.5h-5.6v3.5h-27.9v-3.5h-5.6v3.5h-5.6v-7.1h16.8v3.6h5.6v-3.6h5.5v3.6h5.6v-3.6h11.2v-3.6h-16.8v-3.5h27.9v-3.6h-22.3v-3.5h-11.1v10.6h-5.6v-10.6h-5.6v10.6h-5.6v-3.5h-11.1v7.1h-5.6v-10.7h16.7v-3.5h-22.3v10.6h-5.6v-3.5h-11.1v-3.6h11.1v-3.5h-5.6v-3.6h-5.5v3.6h-5.6v-3.6h-5.6v3.6h-33.5v-3.6h5.6v-3.6h5.6v3.6h5.6v-7.1h5.6v7.1h5.5v-3.6h16.8v-3.5h5.5v3.5h5.6v3.6h22.3v-3.6h5.6v3.6h27.9v-3.6h-11.1v-3.5h11.1v-3.6h-16.7v7.1h-5.6v-3.5h-16.7v3.5h-5.6v-3.5h-5.6v-3.6h-11.2v-3.5h16.8v3.5h11.1v-3.5h-5.5v-3.6h-27.9v7.1h-5.6v3.6h-5.6v-3.6h-5.6v-3.5h-5.5v3.5h-5.6v-3.5h-11.2v3.5h5.6v3.6h-11.2v-7.1h-11.1v-3.6h-11.2v-3.5h16.8v3.5h11.1v-3.5h5.6v3.5h5.6v-3.5h5.6v3.5h5.5v-3.5h5.6v7.1h5.6v-7.1h5.6v-7.2h5.5v7.2h22.4v-3.6h-16.8v-3.6h16.8v-3.5h-27.9v-3.6h33.4v17.8h5.6v7.1h5.6v-3.5h5.6v-3.6h-5.6v-3.5h11.2v7.1h16.7v17.8h5.6v-7.2h5.6v7.2h5.5v-7.2h5.6v14.3h5.6v-10.7h5.6v3.6h5.5v-3.6h11.2v3.6h33.5v-3.6h-27.9v-3.6h11.1v-3.5h5.6v-3.6h-5.6v-3.5h-5.5v7.1h-5.6v-3.6h-5.6v7.1h-5.6v-3.5h-5.6v3.5h-11.1v-3.5h-5.6v-3.6h16.7v-3.5h-22.3v7.1h-11.1v-7.1h5.6v-3.6h22.3v-3.5h5.5v-3.6h5.6v10.7h5.6v-3.6h5.6v-3.5h-5.6v-3.6h11.2v7.1h11.1v3.6h5.6v10.6h5.6v-10.6h5.6v3.5h5.5v-7.1h-16.7v-3.5h-11.2v-3.6h11.2v-3.6h-16.7v-14.2h-5.6v14.2h-5.6v-3.5h-5.6v3.5h-5.6v-3.5h-11.1v3.5h5.6v3.6h-5.6v3.6h-11.2v-3.6h-5.5v3.6h-5.6v3.5h-16.8v-3.5h5.6v-3.6h-27.9v-3.6h5.6v-3.5h-5.6v-3.6h11.2v7.1h5.6v-3.5h5.5v3.5h11.2v3.6h5.6v-3.6h16.7v-7.1h27.9v-7.1h-5.6v3.6h-5.6v-3.6h-5.5v3.6h-16.8v7.1h-11.1v-3.6h5.6v-3.5h-11.2v7.1h-5.6v-7.1h-5.6v3.5h-5.5v-3.5h-5.6v-3.6h39v-3.6h-22.3v-3.5h-5.6v3.5h-5.5v-3.5h-11.2v10.7h-5.6v-14.3h-5.6v14.3h-33.4v-3.6h27.9v-10.7h-5.6v7.1h-16.8v-3.5h11.2v-3.6h-16.7v7.1h-5.6v10.7h-5.6v-10.7h-5.6v-3.5h11.2v-3.6h-16.7v10.7h5.5v10.7h11.2v7.1h-5.6v-3.6h-5.6v3.6h-5.5v-3.6h-5.6v3.6h-22.3v-3.6h16.7v-3.5h11.2v-7.1h-5.6v3.5h-5.6v-3.5h-5.6v-3.6h-5.6v7.1h5.6v3.6h-11.1v-10.7h-5.6v10.7h-11.2v-3.6h5.6v-7.1h-11.2v3.6h-5.5v3.5h-5.6v-7.1h5.6v-3.6h5.5v-7.1h-5.5v-7.1h5.5v3.6h5.6v10.6h5.6v-3.5h5.6v3.5h22.3v3.6h5.6v-10.7h-5.6v3.6h-16.7v-3.6h11.1v-7.1h-5.6v3.6h-5.5v-3.6h-5.6v7.1h-5.6v-10.7h-11.2v-3.5h-5.5v-3.6h5.5v-3.5h-5.5v-3.6h11.1v10.7h5.6v-10.7h5.6v14.2h11.1v-3.5h-5.5v-7.1h5.5v3.5h5.6v7.1h5.6v7.2h5.6v-10.7h-5.6v-7.1h5.6v3.5h5.6v14.3h5.5v-3.6h5.6v3.6h5.6v-7.2h-11.2v-3.5h16.8v10.7h11.1v-3.6h-5.6v-3.6h5.6v-3.5h5.6v10.7h5.6v-3.6h5.6v3.6h16.7v3.5h5.6v-3.5h5.6v3.5h16.7v3.6h11.2v-3.6h-5.6v-3.5h11.1v3.5h5.6v10.7h5.6v-3.6h16.7v-3.5h-16.7v-3.6h5.6v-3.5h-11.2v-3.6h-5.6v-3.6h-5.5v3.6h-11.2v3.6h-11.2v-3.6h5.6v-3.6h11.2v-3.5h-16.8v3.5h-5.5v3.6h-5.6v-3.6h-5.6v-3.5h11.2v-3.6h11.1v-3.5h5.6v3.5h11.2v-3.5h-5.6v-3.6h-22.3v3.6h-5.6v3.5"/>
</svg>