<svg version="1.2" xmlns="http://www.w3.org/2000/svg" viewBox="0 0 1026 646" width="1026" height="646">
	<title>Figure_1-svg</title>
	<style>
		.s0 { fill: #080b62;stroke: #1f77b4;stroke-linecap: square;stroke-width: 1.5 } 
	</style>
	<path id="Layer" fill-rule="evenodd" class="s0" d="m725.2 145.6h6.9v-3.8h-27.8v-3.8h7v-7.5h6.9v7.5h13.9v-7.5h-6.9v-3.8h6.9v-3.8h-6.9v-3.8h6.9v-3.8h-6.9v-11.4h6.9v7.6h6.9v-19h7v-3.8h-7v-3.8h7v-3.8h13.9v3.8h-7v11.4h-6.9v3.8h6.9v3.8h-6.9v11.4h-7l0.1 18.9h6.9v-15.1h6.9v18.9h-13.8v3.8h6.9v3.8h-6.9v3.8h6.9v11.4h6.9v-7.6h7v-3.8h-7v-3.8h7v-26.5h6.9v-3.8h-13.9v-3.8h13.9v-3.8h-6.9v-15.2h6.9v11.4h13.9v-3.8h-6.9v-11.4h-7v-3.8h6.9v-3.8h7v-3.8h13.9v3.8h-7v3.8h-6.9v11.4h6.9v-7.6h7v3.8h6.9v-11.4h7v7.6h6.9v3.8h-6.9v3.8h-13.9v3.8h-7v3.8h20.9v-3.8h6.9v7.6h-41.6v11.4h6.9v-3.8h6.9v-3.8h7v3.8h13.9v-3.8h13.8v-3.8h7v-7.6h-7v-11.4h13.9v3.8h-6.9v3.8h6.9v3.8h7v3.8h-7v3.8h7v3.8h-13.9v3.8h-13.9v3.8h-27.8v3.8h-20.8v7.6h7v3.7h-7v3.8h7v3.8h-7v3.8h13.9v-18.9h6.9v18.9h7v-22.7h6.9v11.3h7v3.8h-7v7.6h13.9v-11.4h6.9v-3.7h-13.8v-7.6h6.9v3.8h6.9v-7.6h13.9v3.8h-6.9v7.6h6.9v-3.8h7v-3.8h6.9v3.8h6.9v-7.6h-13.8v-3.8h6.9v-11.4h6.9v11.4h7v7.6h13.9v-3.8h-7v-3.8h13.9v7.6h6.9v3.8h-27.7v3.8h-20.8v3.7h34.7v-3.7h20.8v7.5h-7v-3.8h-6.9v7.6h-6.9v-3.8h-41.7v-3.8h-6.9v3.8h-7v3.8h34.7v3.8h-20.8v3.8h13.9v3.8h6.9v3.8h-13.8v-3.8h-13.9v-7.6h-7v3.8h-6.9v3.8h6.9v3.8h-13.8v-7.6h-41.7v3.8h34.7v3.8h-41.6v3.8h6.9v3.8h7v-3.8h6.9v3.8h6.9v-3.8h7v7.6h6.9v-7.6h7v3.8h6.9v-3.8h6.9v3.8h7v-7.6h6.9v7.6h7v-3.8h6.9v3.8h6.9v-3.8h7v-19h6.9v3.8h20.8v-3.8h7v7.6h-27.8v3.8h7v3.8h-7v3.8h7v3.8h13.9v-7.6h-7v-3.8h13.9v3.8h20.8v3.8h-20.8v7.6h13.9v3.8h-20.8v-3.8h-13.9v3.8h-7v-7.6h-6.9v3.8h-27.8v3.8h27.8v3.8h20.8v3.8h-27.8v-3.8h-20.8v3.8h-6.9v-11.4h-7v3.8h-6.9v-3.8h-6.9v3.8h-20.9v-3.8h-27.7v-3.8h-7v3.8h-6.9v3.8h6.9v3.8h7v-3.8h6.9v3.8h7v-3.8h6.9v3.8h41.6v3.8h-27.7v3.8h20.8v3.8h-27.8v-7.6h-6.9v3.8h-6.9v-3.8h-7v3.8h-6.9v-3.8h-13.9v-3.8h-6.9v7.6h13.8v3.8h-20.8v-7.6h-6.9v-3.8h-7v7.6h7v3.8h-7v3.8h-6.9v-7.6h-6.9v7.6h-13.9v3.8h13.9v3.8h-27.8v3.8h27.8v3.7h-20.9v3.8h27.8v-3.8h6.9v-3.7h-6.9v-7.6h6.9v3.8h7v-7.6h6.9v11.4h-6.9v3.7h13.9v-15.1h20.8v-3.8h13.9v3.8h-7v3.8h13.9v-3.8h6.9v3.8h7v3.8h-7v3.8h13.9v-3.8h7v-3.8h-7v-3.8h13.9v7.6h6.9v-15.2h7v7.6h6.9v3.8h-6.9v3.8h13.9v-11.4h-7v-3.8h7v-3.8h6.9v3.8h27.8v3.8h-27.8v3.8h34.7v3.8h-34.7v3.8h41.7v3.8h-41.7v3.7h7v3.8h6.9v3.8h6.9v3.8h-13.8v-3.8h-7v-3.8h-6.9v-7.5h-7v3.7h-6.9v-3.7h-7v3.7h-6.9v-3.7h-6.9v3.7h-27.8v-7.5h-13.9v3.8h7v3.7h-13.9v-11.3h-7v3.8h-6.9v3.8h6.9v3.7h-6.9v3.8h13.9v3.8h-7v3.8h13.9v-7.6h69.4v3.8h-62.4v3.8h13.8v3.8h-20.8v3.8h27.8v-7.6h34.7v3.8h-27.8v3.8h13.9v3.8h-55.5v-7.6h-7v3.8h-13.8v-7.6h6.9v-3.8h-6.9v-3.8h-20.9v3.8h13.9v11.4h-6.9v-7.6h-13.9v-3.8h-6.9v3.8h-7v-3.8h-13.9v3.8h7v3.8h27.7v3.8h-41.6v-15.2h-6.9v7.6h-7v3.8h7v3.8h-13.9v-11.4h6.9v-3.8h-13.9v11.4h-20.8v3.8h6.9v3.8h7v-3.8h6.9v3.8h7v3.8h6.9v-3.8h7v3.8h6.9v-3.8h6.9v3.8h7v-3.8h13.9v7.6h6.9v-7.6h13.9v3.8h-7v7.6h7v-3.8h6.9v-7.6h7v3.8h6.9v-3.8h6.9v3.8h69.5l-0.1-7.6h13.9v-7.6h7v7.6h6.9v-3.8h13.9v3.8h-6.9v3.8h-27.8v3.8h27.8v3.8h-62.5v3.8h-7v-3.8h-6.9v3.8h-6.9v-3.8h-7v3.8h-6.9v-3.8h-7v3.8h-6.9v-3.8h-6.9v3.8h-7v3.8h-27.7v-3.8h-7v-3.8h-6.9v3.8h-7v-3.8h-6.9v3.8h-6.9v-3.8h-27.8v-3.8h-7v3.8h-6.9v-3.8h-6.9v3.8h-7v-3.8h-13.9v-7.6h-6.9v3.8h-6.9v-3.8h-7v7.6h-6.9v3.8h-7v3.8h13.9v-3.8h7v-3.8h6.9v3.8h13.9v7.6h-7v-3.8h-6.9v3.8h-27.8v3.8h7v3.8h-7v3.8h13.9v-7.6h7v7.6h6.9v-7.6h13.9v7.6h-7v3.8h-13.8v3.8h-7v7.6h7v-3.8h6.9v-3.8h13.9v-3.8h13.9v-3.8h-7v-15.2h13.9v3.8h7l-0.1-3.8h7v7.6h-20.8v3.8h6.9v3.8h7v-3.8h20.8v-3.8h-7v-7.6h13.9v3.8h7v3.8h6.9v-3.8h6.9v3.8h7v-3.8h6.9v3.8h41.7v-3.8h20.8v3.8h-7v3.8h13.9v-7.6h7v3.8h6.9v-3.8h6.9v3.8h13.9v-3.8h7v-3.8h55.5v-11.4h6.9v-3.8h7v-15.2h-7v-3.8h13.9v7.6h7v-7.6h6.9v-3.7h6.9v-7.6h7v3.8h6.9v3.8h-6.9v3.7h-7v3.8h-6.9v3.8h13.9v-3.8h6.9v3.8h7v3.8h-27.8v3.8h-6.9v-3.8h-7v7.6h13.9v3.8h-20.8v3.8h-7v7.6h7v-3.8h6.9v-3.8h7v3.8h6.9v-3.8h6.9v-11.4h7v7.6h6.9v-7.6h7v7.6h20.8v-3.8h6.9v11.4h-6.9v-3.8h-7v3.8h-6.9v-3.8h-6.9v7.6h-7v-7.6h-6.9v3.8h-7v3.8h7v3.8h-7v3.8h-6.9v7.6h-6.9v-11.4h6.9v-3.8h-13.9v3.8h-55.5v3.8h55.5v3.8h-6.9v3.8h-7v-3.8h-13.8v3.8h6.9v3.8h-13.9v-7.6h-20.8v3.8h13.9v3.8h-20.8v-3.8h-7v-3.8h7v-7.6h-7v3.8h-6.9v3.8h-34.7v3.8h-7v3.8h-6.9v-3.8h-7v3.8h-6.9v-7.6h-34.7v3.8h-6.9v-3.8h-7v3.8h-6.9v3.8h-7v-7.6h-6.9v3.8h-6.9v-3.8h-7v7.6h13.9v3.8h20.8v-3.8h7v3.8h6.9v-3.8h6.9v-3.8h7v7.6h6.9v-7.6h7v7.6h13.8v3.8h-48.5v3.8h55.5v-3.8h6.9v-3.8h7v-3.8h13.8v-3.8h20.9v3.8h-13.9v3.8h-13.9v3.8h-6.9v3.8h-7v3.8h-13.9v3.8l20.9-0.1v3.8h13.9v-3.8h6.9v-3.7h-13.9v-3.8h13.9v-3.8h6.9v-3.8h20.9v3.8h-13.9v3.8h-7v7.5h13.9v-7.5h7v3.8h6.9v-11.4h34.7v3.8h-27.8v3.8h13.9v3.8h7v-3.8h13.8v-3.8h7v-3.8h-7v-3.8h20.9v3.8h-7v3.8h20.8v-3.8h7v3.8h6.9v7.6h-6.9v-3.8h-20.8v3.8h13.8v3.7h-20.8v-7.5h-6.9v7.5h-7v-3.7h-6.9v3.7h-6.9v3.8h13.8v3.8h-20.8v-7.6h-6.9v-3.7h-7v3.7h-13.8v3.8h20.8v3.8h-27.8v-3.8h-20.8v3.8h6.9v3.8h41.7v3.8h-20.8v7.6h-7v-7.6h-13.9v3.8h7v3.8h-13.9v-11.4h-6.9v-3.8h-7v3.8h-6.9v-3.8h-7v-3.8h-13.9v3.8h-13.8v-3.8h6.9v-7.5h-6.9v3.8h-7v7.5h-6.9v-11.3h-7v3.8h-6.9v3.7h6.9v3.8h-13.8v-11.3h-7v-3.8h-6.9v-3.8h-7v3.8h-6.9v-3.8h-6.9v-3.8h-13.9v-3.8h-7v-3.8h-6.9v3.8h-6.9v3.8h-20.9v3.8h-13.9v3.8h20.9v-3.8h6.9v7.6h7v-7.6h6.9v-3.8h6.9v7.6h-6.9v3.8h6.9v3.8h-27.7v-3.8h-48.6v-15.2h-7v3.8h-6.9v3.8h6.9v7.6h-6.9v-3.8h-6.9v3.8h-13.9v3.8h20.8v3.7h-27.8v3.8h27.8v3.8h6.9v-11.3h7v7.5h6.9v-7.5h34.7v3.7h34.7v3.8h7v-18.9h6.9v3.8h7v3.8h6.9v3.8h-13.9v7.5h7v-3.8h6.9v7.6h-13.9v3.8h-6.9v-3.8h-13.9v-3.8h-41.6l-0.1-3.8h-13.8v3.8h6.9v3.8h20.8v3.8h7v-3.8h13.9v3.8h13.8v3.8h20.9v-3.8h6.9v3.8h6.9v-22.7h7v3.8h6.9v3.7h-6.9v3.8h6.9v3.8h7v3.8h-13.9v3.8h13.9v3.8h6.9v-11.4h6.9v7.6h7v-7.6h13.9v3.8h6.9v-3.8h20.8v3.8h20.9v7.6h-7v-3.8h-20.8v-3.8h-7v3.8h-20.8v3.8h-6.9v3.8h13.9v-3.8h20.8v3.8h-13.9v3.8h13.9v3.8h-20.8v-3.8h-7v3.8h-13.9v-7.6h-6.9v3.8h-6.9v-3.8h-7v-3.8h-6.9v3.8h-7v-3.8h-20.8v3.8h-6.9v-3.8h-7v3.8h-6.9v-7.6h-6.9v7.6h-13.9v-3.8h6.9v-3.8h-13.9v3.8h-6.9v-3.8h-6.9v-3.8h-20.9v-3.8h-6.9v3.8h-7v3.8h7v3.8h6.9v-3.8h13.9v3.8h7v3.8h-34.8v3.8h41.7v-3.8h6.9v3.8h7v3.8h-48.6v3.8h-7l0.1 7.6h-7v3.8h20.8v-3.8h-6.9v-3.8h6.9v-3.8h13.9v3.8h-6.9v3.8h6.9v7.6h7v-15.2h27.7v-7.6h7v7.6h6.9v-7.6h13.9v3.8h-7v3.8h7v7.6h-13.9v-3.8h-34.7v11.4h6.9v-7.6h20.9v3.8h-13.9v3.8h20.8v-3.8h13.9v7.6h6.9v-11.4h7v-3.8h-7v-3.8h7v-3.8h-7v-3.8h7v-3.8h6.9v3.8h6.9v3.8h-6.9v3.8h6.9v3.8h7v3.8h6.9v-3.8h7v-3.8h-13.9v-7.6h6.9v3.8h13.9v3.8h6.9v3.8h-6.9v3.8h13.9v-7.6h41.6v-15.2h7v3.8h27.7v3.8h-13.8v7.6h-7v-7.6h-6.9v11.4h-41.7v3.8h55.6v-3.8h6.9v-7.6h6.9v7.6h7v-15.2h13.9v3.8h-7v11.4h7v-7.6h6.9v-15.2h13.9v3.8h-7v11.4h7v-7.6h6.9v-15.2h7v11.4h6.9v-11.4h6.9v7.6h7v-15.2h20.8v3.8h-13.9v3.8h13.9v3.8h-13.9v7.6h7v-3.8h6.9v3.8h6.9v3.8h-27.7v-3.8h-7v7.6h-6.9v-3.8h-6.9v3.8h-7v3.8h13.9v3.8h6.9v-3.8h7v7.6h-20.8v-3.8h-27.8v3.8h20.8v3.8h34.7v-15.2h13.9v3.8h-6.9v3.8h6.9v3.8h-6.9v3.8h6.9v3.8h6.9v-7.6h7v3.8h6.9v-7.6h-13.9v-3.8h13.9v-3.8h-6.9v-11.4h6.9v7.6h7v11.4h6.9v-15.2h-6.9v-11.4h6.9v7.6h13.9v-3.8h-6.9v-3.8h6.9v-3.8h13.9v3.8h-7v3.8h7v3.8h-7v3.8h-13.8v3.8h20.8v3.8h-20.8v7.6h6.9v-3.8h6.9v3.8h7v-3.8h6.9v7.6h-13.9v3.8h-6.9v-3.8h-20.8v3.8h13.9v3.8h20.8v3.8h6.9v-3.8h7v7.6h6.9v3.8h-13.9v-3.8h-13.9v-3.8h-13.8v3.8h6.9v3.8h-13.9v-11.4h-20.8v3.8h13.9v3.8h-13.9v3.8h6.9v3.8h-6.9v3.8h13.9v-3.8h6.9v7.5h7v3.8h6.9v-3.8h13.9v3.8h-7v3.8h13.9v-3.8h7v7.6h-7v3.8h-6.9v-3.8h-7v11.4h-6.9v-15.2h-6.9v3.8h-13.9v-3.8h6.9v-3.8h-6.9v-3.8h-7v7.6h-20.8v-3.8h13.9v-3.8h-6.9v-3.7h-7v3.7h-6.9v-7.5h13.9v-11.4h-7v7.6h-6.9v-11.4h-7v7.6h-6.9v-7.6h-13.9v3.8h-6.9v-3.8h-7v11.4h13.9v-3.8h6.9v3.8h13.9v3.8h-27.7v3.8h20.8v3.7h6.9v3.8h-13.9v-3.8h-20.8v-7.5h-6.9v-19h-7v11.4h-6.9v-11.4h-13.9v3.8h7v3.8h-7v3.8h7v3.8h-7v3.8h-6.9v-7.6h-13.9v-3.8h13.9v-7.6h-13.9v3.8h-6.9v3.8h-7v-3.8h-34.7v3.8h13.9v3.8h-20.8v-7.6h-13.9v3.8h6.9v3.8h-6.9v3.8h-13.9v-3.8h6.9v-7.6h-6.9v3.8h-6.9v3.8h-7v-7.6h-13.9v-3.8h-6.9v3.8h-6.9v7.6h6.9v-3.8h13.9v3.8h-7v3.8h-6.9v3.8h-6.9v-3.8h-7v3.8h-6.9v-3.8h-7v-3.8h-6.9v3.8h-6.9v-3.8h-7v3.8h-6.9v3.8h27.7v3.8h-34.7v3.8h7v3.7h6.9v-3.7h27.8v-3.8h20.8v3.8h13.9v-3.8h-7v-3.8h7v-3.8h13.9v3.8h6.9v3.8h7l-0.1-3.8h7v3.8h6.9v-7.6h7v3.8h6.9v-3.8h20.8v-7.6h7v3.8h13.9v3.8h13.8v3.8h-20.8v-3.8h-6.9v3.8h-20.8v3.8h34.7v3.8h6.9v-3.8h6.9v3.8h13.9v-3.8h7v3.8h6.9v-11.4h6.9v7.6h7v3.8h-7v3.7h-6.9v3.8h13.9v-3.8h20.8v3.8h6.9v3.8h-13.8v-3.8h-7v3.8h-6.9v3.8h-7v-3.8h-6.9v7.6h-6.9v-15.2h-13.9v3.8h-7v-3.8h-20.8v-3.7h-13.9v3.7h-6.9v-3.7h-13.9v-3.8h-6.9v3.8h-27.8v3.7h13.9v3.8h6.9v-3.8h7v3.8h6.9v-3.8h7v3.8h34.7v3.8h-13.9v3.8h-7v-3.8h-20.8v3.8h13.9v3.8h-20.8v-7.6h-7v3.8h-13.8v-7.6h-7v3.8h-6.9v-15.1h-7v11.3h-6.9v-3.8h-7v3.8h-6.9v3.8h-6.9v-11.3h-7v3.7h-27.7v3.8h27.7v3.8h-20.8v3.8h27.8v7.6h13.8v-3.8h-6.9v-3.8h6.9v-3.8h13.9v3.8h13.9v3.8h20.8v11.4h7v-7.6h27.7v-3.8h7v7.6h-27.8v3.8h34.7v-15.2h7v7.6h6.9v-11.4h20.8v3.8h-13.9v7.6h7v-3.8h6.9v3.8h20.8v-3.8h7v3.8h6.9v3.8h7v-7.6h-7v-3.8h20.8l0.1 3.8h-7v7.6h7v-3.8h6.9v-7.6h6.9v-3.8h-6.9v-3.8h13.9v3.8h13.9v3.8h6.9v-3.8h6.9v3.8h7v3.8h-27.8v-3.8h-6.9v3.8h-7v3.8h48.6v-3.8h7v7.6h-7v3.8h-6.9v-3.8h-27.8v3.8h20.8v3.8h-20.8v3.8h20.8v7.6h-6.9v-3.8h-6.9v7.6h-7v-7.6h-6.9v-3.8h-7v-3.8h7v-7.6h-13.9v3.8h-6.9v7.6h6.9v3.8h6.9v3.8h-6.9v3.8h-6.9v-7.6h-7v-11.4h-20.8v-3.8h-13.9v3.8h-6.9v-3.8h-34.7v3.8h6.9v3.8h13.9v-3.8h6.9v3.8h7v3.8h13.8v-3.8h20.9v7.6h-7v-3.8h-6.9v3.8h-7v3.8h-6.9v-3.8h-6.9v3.8h-7v-7.6h-6.9v7.6h-7v-7.6h-6.9v3.8h-6.9v-7.6h-62.5v-11.4h-6.9v3.8h-7v-3.8h-6.9v-3.8h-7v3.8h-6.9v7.6h6.9v-3.8h7v3.8h13.9v3.8h-7v3.8h-6.9v3.8h6.9v3.8h7v-7.6h6.9v3.8h6.9v-3.8h48.6v3.8h-41.6v7.6h6.9v-3.8h7v3.8h6.9v-3.8h6.9v3.8h7v-3.8h6.9v3.8h7v-3.8h6.9v3.8h6.9v3.8h-69.4v-7.6h-6.9v3.8h-20.8v3.8h20.8v3.8h-6.9v3.8h13.8v-3.8h69.4v3.8h7v-11.4h6.9v3.8h7v-3.8h20.8v3.8h6.9v-7.6h13.9v3.8h-6.9v3.8h27.7v-3.8h7v7.6h-7v3.8h-6.9v-3.8h-6.9v3.8h-7v-3.8h-27.7l-0.1-3.8h-6.9v3.8h-13.9v7.6h7v-3.8h34.7v3.8h6.9v3.8h-13.9v-3.8h-20.8v3.8h-6.9v7.5h13.9v-7.5h6.9v7.5h13.9v-3.7h6.9v3.7h13.9v-3.7h-6.9v-7.6h6.9v3.8h6.9v-3.8h7v3.8h6.9v-7.6h7v7.6h6.9v3.8h-27.8v3.7h34.7v-3.7h7v7.5h-7v3.8h-6.9v-3.8h-20.8v3.8h13.9v3.8h-20.9v-7.6h-48.5v3.8h41.6v3.8h-34.7v3.8h-6.9v-3.8h-7v-7.6h-6.9v3.8h-7v-7.6h-6.9v-3.7h6.9v-3.8h-6.9v-3.8h-13.9v-3.8h-13.9v3.8h-6.9v-3.8h-7v3.8h-6.9v-3.8h-20.8v7.6h6.9v-3.8h7v3.8h13.8v3.8h7v-3.8h6.9v3.8h7v-3.8h13.8v3.8h-6.9v3.7h-20.8v3.8h20.8v3.8h-20.8v3.8h27.7v-7.6h7v11.4h6.9v-3.8h7v3.8h6.9v3.8h13.9v3.8h-13.9v3.8h20.8v-11.4h7v7.6h6.9v-7.6h7v7.6h6.9v-7.6h6.9v7.6h7v-7.6h6.9v3.8h7v3.8h-7v3.8h13.9v-3.8h6.9v7.6h-6.9v3.8h-6.9v-3.8h-7v7.6h7v3.8h-13.9v-7.6h-7v-3.8h7v-3.8h-13.9v3.8h-6.9v-3.8h-13.9v3.8h-7v3.8h7v3.8h6.9v-3.8h13.9v3.8h-6.9v3.8h-20.9v-3.8h-6.9v-7.6h-13.9v3.8h7v7.6h6.9v3.8h-13.9v-7.6h-6.9v-19h-7v15.2h-6.9v-15.2h-7v-3.8h-13.8v7.6h13.9v3.8h-7v3.8h7v3.8h-7v3.8h13.9v3.8h13.9v7.6h27.7v-3.8h7v3.8h6.9v-3.8h7v3.8h6.9v-7.6h6.9v7.6h7v-3.8h6.9v3.8h7v3.8h6.9v3.8h-13.9v-3.8h-6.9v3.8h-7v-3.8h-6.9v7.6h20.8v3.8h-13.9v7.5h-13.8v-3.7h6.9v-3.8h-6.9v-11.4h-13.9v3.8h6.9v3.8h-6.9v3.8h-7v-11.4h-13.8v3.8h6.9v3.8h-6.9v7.6h27.7v3.7h-6.9v3.8h-7v-3.8h-6.9v7.6h-6.9v-7.6h-7v-3.7h-6.9v-3.8h6.9v-11.4h-13.9v-7.6h-6.9v11.4h13.9v3.8h-7v11.3h7v3.8h-7v7.6h-6.9v-15.1h-6.9v7.5h-13.9v-3.8h6.9v-7.5h13.9v-3.8h-6.9v-19h-7v7.6h-6.9v3.8h6.9v7.6h-6.9v-3.8h-7v-11.4h7v-19h-7v-11.4h-13.9v3.8h7v11.4h6.9v3.8h-6.9v3.8h6.9v3.8h-6.9v7.6h-7v-11.4h-6.9v-3.8h6.9v-11.4h-6.9v7.6h-13.9v-3.8h7v-3.8h-7v-3.8h13.9v-3.8h-6.9v-3.8h13.8v-11.4h-6.9v-3.7h-6.9v7.5h6.9v3.8h-13.9v-11.3h-6.9v15.1h6.9v3.8h-6.9v3.8h-7v-11.4h-6.9v-3.8h6.9v-3.8h-6.9v-3.7h6.9v-3.8h-6.9v-3.8h-6.9v18.9h-7v-26.5h-6.9v30.3h20.8v3.8h-13.9v3.8h13.9v3.8h13.9v11.4h13.9v3.8h-34.7v-3.8h13.8v-7.6h-6.9v3.8h-6.9v-7.6h-13.9v3.8h6.9v3.8h-6.9v3.8h-7v3.8h13.9v3.8h48.6v3.8h-6.9v3.8h6.9v3.8h13.9v7.6h-6.9l-0.1-3.8h-6.9v7.6h7v3.8h13.8v3.7h-13.8v3.8h6.9v3.8h13.9v3.8h-7v3.8h-6.9v-3.8h-6.9v-3.8h-7v-3.8h-6.9v-3.8h6.9v-3.7h-6.9v-15.2h-7v-7.6h-6.9v11.4h6.9v15.1h-6.9v-11.3h-7v-15.2h-6.9v19h6.9v3.8h-6.9v3.7h6.9v3.8h-13.8v3.8h13.8v3.8h-13.8v3.8h20.8v-3.8h6.9v3.8h7v3.8h-34.7v3.8h20.8v3.8h13.9v3.8h-20.8v-3.8h-7v3.8h-6.9v-3.8h-7v-7.6h-6.9v-3.8h6.9v-11.4h-6.9v-3.8h13.9v-7.5h-7v-3.8h7v-3.8h-13.9v-3.8h13.9v-7.6h-7v3.8h-6.9v-7.6h-13.9v3.8h6.9v7.6h-6.9v-3.8h-6.9v7.6h13.8v3.8h-6.9v3.8h13.9v3.8h-13.9v3.7h6.9v7.6h7v3.8h-7v11.4h7v3.8h-13.9v-3.8h-13.9v3.8h7v3.8h-7v3.8h-6.9v-3.8h-13.9v-3.8h13.9v-3.8h-7v-7.6h7v3.8h6.9v-3.8h7v3.8h6.9v-7.6h-6.9v-3.8h6.9v-3.8h-6.9v-3.8h-7v-3.7h7v-7.6h-7v-3.8h-6.9v-3.8h6.9v-3.8h-6.9v-3.8h13.9v-3.8h-20.9v3.8h-6.9v3.8h6.9v11.4h7v3.8h-7v3.8h7v3.7h-7v3.8h13.9v7.6h-6.9v-3.8h-7v3.8h-6.9v-30.3h-6.9v18.9h-7v-22.7h7v-7.6h6.9v-11.4h6.9v7.6h27.8v-3.8h-20.8v-3.8h27.7v-3.8h-27.7v-3.8h27.7v-3.8h7v-3.8h-13.9v3.8h-6.9v-7.6h13.8v-3.8h-13.8v-3.8h13.8v-3.8h-6.9v-7.5h6.9v-3.8h-6.9v-3.8h-6.9v-3.8h13.8v-7.6h-6.9v3.8h-6.9v-15.2h6.9v7.6h6.9v-11.4h-13.8l-0.1-7.6h-6.9v38h7v3.8h-7v3.8h7v3.7h-7v19h-6.9v-11.4h-7v7.6h-6.9v3.8h6.9v3.8h-6.9v3.8h-6.9v-7.6h-7v-3.8h7v-3.8h6.9v-7.6h13.9v-7.5h-7v3.7h-13.8l-0.1-3.7h7v-3.8h13.9v-3.8h-13.9v-3.8h13.9v-3.8h-7v-3.8h7v-3.8h-7v-3.8h7v-3.8h-7v-3.8h7v-3.8h-7v-3.8h7v-3.8h-7v-3.8h-6.9v-3.8h-13.9v3.8h6.9v3.8h7v3.8h-7v3.8h7v22.8h-7v3.8h-6.9v-7.6h6.9v-3.8h-6.9v-3.8h6.9v-3.8h-6.9v-3.8h-6.9v-3.8h6.9v-3.8h-6.9v-15.2h-7v-7.6h-6.9v3.8h-7v-3.8h-13.8v3.8h6.9v3.8h-6.9v3.8h13.8v-3.8h7v3.8h6.9v15.2h-6.9v-7.6h-7v-3.8h-6.9v3.8h-6.9v3.8h13.8v7.6h13.9v3.8h7v3.8h-13.9v-3.8h-7v7.6h20.9v3.8h-7v3.8h7v7.6h13.8v3.8h-6.9v7.5h-6.9v-7.5h-7v15.1h7v-3.8h13.9v3.8h-7v3.8h-6.9v7.6h-7v-7.6h-6.9v-11.4h-7v-3.7h7v-3.8h-7v-3.8h13.9v-3.8h-6.9v-7.6h-7v7.6h-6.9v7.6h-6.9v-11.4h6.9v-3.8h-6.9v-3.8h-7v-3.8h13.9v-11.4h-6.9v7.6h-7v-11.4h-6.9v-3.8h6.9v-3.8h-13.9v-3.8h13.9v-3.8h-13.9v-3.8h13.9v-3.8h-6.9v-3.8h20.8v-3.7h-13.9v-3.8h13.9v-3.8h6.9v-3.8h-6.9v-3.8h-6.9v7.6h-7v-3.8h-6.9v3.8h-7v-7.6h7v-3.8h-13.9v3.8h-6.9v-3.8h-13.9v3.8h6.9v3.8h13.9v3.8h-20.8v3.8h34.7v3.8h-27.8v3.7h20.8v3.8h-13.8v3.8h6.9v3.8h-6.9v3.8h6.9v3.8h-6.9v3.8h13.8v7.6h7v15.2h-7v3.8h13.9v19h13.9v3.7h-6.9v3.8h13.8v3.8h-13.8v3.8h13.8v3.8h-6.9v7.6h6.9v-3.8h7v3.8h20.8v3.8h-6.9v7.6h6.9v-3.8h7v7.6h-7v7.6h-6.9v19h-7v7.5h7v7.6h6.9v-3.8h7v7.6h-7v3.8h7v3.8h-7v7.6h-13.9v-3.8h7v-11.4h-7v-7.6h-6.9v-15.1h6.9v-19h7v-3.8h-7v-11.4h-6.9v7.6h-7v-7.6h-6.9v3.8h-6.9v-7.6h-7v-3.8h7v-3.8h-7v-7.6h-6.9v-3.8h6.9v-3.8h-6.9v-18.9h-7v18.9h-6.9v7.6h6.9v3.8h7v3.8h-7v3.8h7v3.8h-7v3.8h13.9v3.8h-6.9v3.8h13.9v3.8h20.8v19h-6.9v-7.6h-7v-3.8h7v-3.8h-13.9v11.4h6.9v3.8h-6.9v7.6h6.9v-3.8h7v7.6h-20.9v-7.6h-6.9v-3.8h6.9v-19h-6.9v15.2h-7v-7.6h-6.9v-3.8h6.9v-3.8h-6.9v-3.8h6.9v-3.8h-6.9v-19h-6.9v26.6h-7v-3.8h-20.8v-3.8h20.8v-11.4h-6.9v7.6h-7v-11.4h13.9v-7.6h7v-7.6h-7v-3.7h13.9v-22.8h-6.9v3.8h-7v-7.6h20.8v-3.8h-6.9v-11.4h-6.9v11.4h-7v-34.2h-6.9v-7.5h-7v-19h-6.9v22.7h6.9v3.8h-6.9v7.6h6.9v-3.8h7v7.6h-7v3.8h7v7.6h-7v3.8h7v7.6h-13.9v7.6h6.9v-3.8h7v7.6h-7v3.8h20.9v11.4h-7v-7.6h-6.9v26.5h-7v-3.8h-6.9v-3.8h6.9v-18.9h-6.9v15.1h-6.9v-7.5h-7v15.1h7v7.6h6.9v3.8h-6.9v3.8h6.9v3.8h-6.9v11.4h20.8v3.8h13.9v3.8h-13.9v3.8h13.9v3.8h6.9v3.8h6.9v7.6h7v3.8h-7v3.8l34.8-0.1v3.8h-20.9v3.8h27.8v3.8h-6.9v3.8h6.9v3.8h-6.9v3.8h-7v-3.8h-6.9v-3.8h6.9v-3.8h-13.9v3.8h-6.9v3.8h6.9v3.8h7v7.6h6.9v3.8h-6.9v3.8h-7v-11.4h-6.9v-3.8h-6.9v-11.4h6.9v-7.6h-6.9v3.8h-7v22.8h-6.9v-7.6h-13.9v-3.8h13.9v-3.8h-7v-3.8h7v-3.8h-7v-3.8h13.9v-3.7h-20.8v-3.8h6.9v-3.8h7v3.8h6.9v-7.6h-6.9v-3.8h-7v-3.8h-13.9v-11.4h-20.8v3.8h7v3.8h6.9v3.8h-13.9v-3.8h-6.9v11.4h6.9v-3.8h27.8v3.8h-7v7.6h-6.9v-7.6h-6.9v11.4h13.8v3.7h7v11.4h-7v11.4h-6.9v-15.2h6.9v-3.8h-6.9v-3.8h-6.9v7.6h-7v-18.9h-6.9v22.7h13.9v7.6h-7v-3.8h-6.9v7.6h6.9v3.8h-6.9v7.6h6.9v3.8h-6.9v3.8h-7v-7.6h-13.8v-3.8h13.8v-3.8h-6.9v-3.8h6.9v-34.1h-6.9v30.3h-6.9v7.6h-13.9v-3.8h6.9v-7.6h7v-3.8h-13.9v7.6h-7v11.4h-6.9v-15.2h6.9v-7.6h20.9v-11.3h-7v7.5h-13.9v-3.8h7v-3.7h-13.9v3.7h-6.9v3.8h6.9v3.8h-6.9v11.4h-7v-11.4h-6.9v11.4h-7v-7.6h-6.9v-3.8h6.9v-3.8h13.9v-3.8h-20.8v-7.5h6.9v3.8h7v-7.6h6.9v7.6h7v-3.8h34.7v-3.8h-27.8v-3.8h13.9v-3.8h-20.8v-3.8h27.7v7.6h20.8v-3.8h-13.8v-3.8h13.8v-3.8h-13.8v-3.8h20.8v-3.8h-7v-7.6h7v3.8h6.9v-7.6h-20.8v-3.8h20.8v-15.2h-6.9v-22.7h13.9v-7.6h6.9v-3.8h-6.9v-3.8h-7v-3.8h7v-3.8h-7v-3.8h13.9v-3.8h-13.9v-3.8h13.9v-3.8h-13.9v-3.8h13.9v-3.8h-13.9v-7.6h7l-0.1-22.7h-6.9v3.8h-6.9v3.8h6.9v3.8h-6.9v3.7h6.9v3.8h-6.9v11.4h-7v-26.5h-6.9v18.9h-7v3.8h7v3.8h-7v3.8h7v3.8h6.9v-3.8h7v7.6h-7v3.8h7v7.6h-7v3.8h7v7.6h6.9v7.6h-13.9v7.6h-6.9v3.8h6.9v11.3h-6.9v-7.5h-6.9v11.3h13.8v3.8h7v3.8h-7v3.8h-6.9v-7.6h-6.9v3.8h-7v3.8h7v3.8h-7v7.6h13.9v7.6h-6.9v-3.8h-7v11.4h-6.9v-11.4h-7v-3.8h7v-3.8h-13.9v3.8h-6.9v7.6h13.8v7.6h-6.9v-3.8h-6.9v3.8h-7v3.8h-6.9v-7.6h6.9v-11.4h-13.9v3.8h7v3.8h-7v15.2h13.9v3.8h-13.9v3.8h-6.9v-15.2h-7l0.1 15.2h-7v-7.6h-6.9v3.8h-7v-7.6h13.9v-3.8h-13.9v-3.8h27.8v-15.2h-13.9v3.8h6.9v3.8h-6.9v3.8h-6.9v-7.6h-7v-3.8h7v-3.8h-7v-7.6h7v3.8h6.9v3.8h20.8v3.8h20.9v-3.8h20.8v-11.4h6.9v-7.6h-6.9v-3.8h6.9v-7.5h7v-7.6h6.9v-7.6h6.9v-3.8h-6.9v-22.8h-7v-3.8h-6.9v7.6h6.9v3.8h-6.9v3.8h6.9v3.8h-6.9v3.8h6.9l0.1 3.8h-7v3.8h7v3.8h-7v7.6h-6.9v-11.4h-7v15.2h7v3.8h-7v7.5h-6.9v3.8h6.9v11.4h-13.8v-3.8h6.9v-3.8h-6.9l-0.1-3.8h-6.9v15.2h-6.9v-3.8h-7v-3.8h7v-11.4h13.8v-3.8h7v-26.5h13.9v-3.8h-13.9v-3.8h13.9v-3.8h-7v-3.8h7v-3.8h-7v-3.8h7v-3.8h-7v-3.8h13.9v-15.2h6.9v-18.9h7v-3.8h-13.9v3.8h-6.9v3.8h6.9v11.3h-6.9v3.8h-7v3.8h7v7.6h-7v-3.8h-6.9v-7.6h-7v-3.8h-6.9v7.6h6.9v7.6h7v22.8h-7v11.4h-6.9v3.8h6.9v3.8h-13.8v3.8h13.8v3.8h-6.9v3.8h6.9v3.8h-6.9v3.7h-6.9v-3.7h-7v-3.8h7v-3.8h-7v-7.6h-6.9v18.9h6.9v3.8h-6.9v3.8h6.9v3.8h-6.9v7.6h-7v-7.6h-13.8v-3.8h13.8v-3.8h-13.8v-3.8h13.8v-22.7h20.9v-3.8h-13.9v-3.8h20.8v-11.4h6.9v-15.2h-6.9v3.8h-6.9v3.8h6.9v3.8h-6.9v11.4h-7v-15.2h-6.9v3.8h-13.9v3.8h13.9v7.6h-7v-3.8h-6.9v7.6h6.9v3.8h-6.9v3.8h-6.9v3.8h6.9v15.2h-6.9v-7.6h-7v7.6h-6.9v7.5h6.9v3.8h-6.9v3.8h-13.9v-3.8h6.9v-3.8h-6.9v-3.8h6.9v-7.5h7v-3.8h-7v-3.8h13.9v-3.8h-13.9v-3.8h13.9v-3.8h-6.9v-7.6h-7v-3.8h13.9v7.6h7v-11.4h-13.9v-3.8h13.9v-3.8h-13.9v-3.8h20.8v3.8h6.9v-3.8h13.9v-3.8h-13.9v-7.6h-6.9v7.6h-6.9v-7.6h-7v-3.8h27.8v7.6h6.9v-3.8h7v-3.8h-7v-3.8h-6.9v-3.8l-7 0.1v3.7h-6.9v-3.7h-6.9v3.7h-7v-3.7h-6.9v11.3h-7v3.8h13.9v3.8h-13.9v7.6h-6.9v-11.4h-6.9v15.2h13.8v3.8h-6.9v11.4h6.9v3.8h-6.9v22.8h-6.9v3.7h-7v-7.5h7v-19h-7v15.2h-6.9v-19h13.9v-11.4h-7v7.6h-6.9v-11.4h6.9v-3.8h-13.9v7.6h-6.9v3.8h6.9v30.4h7v11.3h13.9v11.4h13.8v3.8h7v7.6h-7v-3.8h-6.9v-3.8h-13.9v-11.4h-6.9v15.2h13.9v3.8h6.9v3.8h13.9v3.8h6.9v3.8h-6.9v19h-13.9v-3.8h6.9v-19h-6.9v3.8h-6.9v7.6h6.9v3.8h-6.9v3.8h-7v-15.2h-6.9v15.2h-7v-19h20.9v-3.8h-7v-3.8h-6.9v3.8h-7v-22.8h-6.9v15.2h-6.9v3.8h6.9v7.6h-6.9v-3.8h-7v11.4h7v-3.8h6.9v19h-6.9v-11.4h-7v15.2h20.8v-3.8h20.9v7.6h6.9v-3.8h6.9v3.8h7v-3.8h6.9v3.8h20.9v11.3h-7v-7.5h-13.9v3.7h7v3.8h-13.9v3.8h-7v-7.6h7v-3.7h-13.9v11.3h-6.9v3.8h-7v-7.6h7v-7.5h-7v-7.6h-6.9v11.3h-7v-7.5h-6.9v3.8h-6.9v-3.8h-7v3.8h-6.9v-19h-7v-3.8h7v-3.8h-13.9v15.2h6.9v15.1h7v3.8h13.9v-3.8h6.9v3.8h13.9v3.8h-7v3.8h-6.9v-3.8h-6.9v7.6h-7v-7.6h-6.9v11.4h13.9v7.6h13.8v7.6h-6.9v-3.8h-6.9v3.8h-7v-11.4h-6.9v11.4h-7v-7.6h-6.9v3.8h-6.9v3.8h-7v-7.6h7v-3.8h13.8v-3.8h-27.7v15.2h-13.9v-3.8h6.9v-3.8h-6.9v-3.8h6.9v-3.8h-6.9v-3.8h-20.8v-3.8h27.7v3.8h7v-3.8h6.9v3.8h20.8v-11.4h-6.9v7.6h-6.9v-3.8h-13.9v-3.8h13.9v-3.8h6.9v-3.7h-13.9v3.7h-6.9v-3.7h-20.8v3.7h13.8v3.8h-6.9v3.8h-6.9v-3.8h-7v3.8h-6.9v-3.8h-7v7.6h-6.9v-3.8h-6.9v-3.8h6.9v-3.8h20.8v-7.5h7v-3.8h6.9v3.8h34.7v-3.8h-6.9v-3.8h-7v3.8h-6.9v-3.8h-7v-3.8h20.9v-3.8h-20.9v-3.8h20.9v-7.6h20.8v-7.6h-7v3.8h-6.9v-7.6h20.8v-7.6h7v-3.8h-7v-3.8h7v-7.6h13.8v-7.5h-6.9v3.7h-6.9v-7.5h6.9v-3.8h-6.9v-3.8h6.9v-3.8h-6.9v-3.8h6.9v-11.4h-6.9v-11.4h-7v15.2h7v3.8h-7v3.8h-6.9v3.8h6.9v3.8h-6.9v3.8h6.9v7.6h-6.9v3.7h6.9v3.8h-6.9v19h-7v-3.8h-6.9v-3.8h6.9v-18.9h-6.9v-3.8h6.9v-7.6h-6.9v3.8h-6.9v11.3h6.9v11.4h-6.9v-7.6h-7v11.4h7v3.8h-20.9v3.8h20.9v3.8h-7v3.8h7v3.8h-7v7.6h-6.9v-3.8h-7v-3.8h7v-7.6h-7v3.8h-6.9v26.6h-6.9v-3.8h-7v-3.8h7v-3.8h-7v-3.8h7v-11.4h-7v3.8h-6.9v-7.6h20.8v-3.8h-20.8v-3.8h20.8v-3.8h-7v-3.8h13.9v3.8h7v-7.6h-13.9v-3.8h13.9v-3.8h6.9v-3.7h-6.9v-3.8h6.9v-3.8h-13.9v11.3h-6.9v-7.5h-7v3.8h-6.9v3.7h6.9v3.8h-6.9v11.4h-6.9v-3.8h-13.9v3.8h6.9v3.8h-6.9v3.8h6.9v3.8h-6.9v3.8h6.9v3.8h-6.9v3.8h13.9v3.8h-13.9v3.8h13.9v3.8h-7v3.8h7v3.8h-13.9v-7.6h-7v11.4h20.9v7.6h-7v-3.8h-6.9v3.8h-6.9l-0.1-3.8h-6.9v-3.8h-6.9v7.6h6.9v15.1h-6.9v-11.4h-7v-15.1h13.9v-11.4h6.9v-26.6h-6.9v22.8h-6.9v11.4h-7v-11.4h-6.9v30.3h-7v3.8h-6.9v-7.5h6.9v-7.6h-6.9v-3.8h6.9v-3.8h-6.9v-3.8h6.9v-3.8h-20.8v3.8h7v3.8h-7v7.6h7v7.6h-7v-3.8h-6.9v-11.4h-13.9v3.8h6.9v3.8h-6.9v7.6h6.9v3.8h20.9v3.7h-13.9v7.6h-13.9v-3.8h6.9v-3.8h-6.9v-3.7h-6.9v7.5h-7v-7.5h-6.9v3.7h-13.9v-3.7h6.9v-3.8h20.9v-11.4h-7v7.6h-20.8v-3.8h13.9v-3.8h-20.8v3.8h-13.9v-3.8h6.9v-3.8h41.7v-3.8h-41.7v-3.8h34.7v-3.8h-34.7v-3.8h34.7v-3.8h7v11.4h6.9v3.8h13.9v-7.6h-13.9v-3.8h13.9v-3.8h6.9v7.6h7v-3.8h6.9v3.8h6.9v-3.8h20.9v-3.8h-34.7v-3.8h20.8v-3.8h6.9v3.8h7v-7.6h-20.9v3.8h-6.9v-3.8h-6.9v-3.8h-7v11.4h-6.9v-15.2h20.8v3.8h27.8v-3.8h13.8v-3.8h-13.8v-3.8h6.9v-3.8h6.9v3.8h20.9v-7.6h-7v3.8h-6.9v-3.8h-13.9v-3.7h13.9v-3.8h6.9v3.8h7v-3.8h6.9v-3.8h-27.8v3.8h-6.9v-3.8h-6.9v7.6h-7v3.7h7v3.8h-7v11.4h-13.9v-3.8h7v-7.6h-7v-3.8h7v-3.7h-13.9v3.7h-6.9v-3.7h-7v7.5h13.9v3.8h-6.9v3.8h-7v-3.8h-6.9v-7.6h-7v7.6h-6.9v3.8h-6.9v3.8h13.8v19h-6.9v-15.2h-6.9v11.4h-7v-19h-13.9v3.8h7v3.8h-7v7.6h7v7.6h-7v-3.8h-6.9v3.8h-20.8v-3.8h13.9v-3.8h6.9v-11.4h-6.9v7.6h-7v-7.6h-6.9v3.8h-7v-3.8h-6.9v7.6h13.9v3.8h-7v7.6h-6.9v-7.6h-7v7.6h-6.9v-7.6h-13.9v-3.8h20.8v-7.6h-6.9v3.8h-6.9v-3.8h-7v3.8h-6.9v-7.6h27.7v-3.8h-13.8v-3.8h-13.9v-3.7h-7v-3.8h-6.9v-3.8h13.9v3.8h6.9v3.8h7v-7.6h6.9v11.3h6.9v-7.5h7v15.1h6.9v-3.8h7v3.8h6.9v-3.8h7v3.8h6.9v-7.6h-27.8v-3.7l27.8-0.1v-3.7h-13.9v-3.8h20.8v15.1h7v-3.8h6.9v3.8h7v-3.8h6.9v-3.8h-20.8v-3.7h34.7v-3.8h-13.9v-3.8h-6.9v3.8h-7v-3.8h-6.9v-3.8h27.7v3.8h7v-7.6h-7v-3.8h13.9v3.8h7v3.8h-7v7.6h13.9v-7.6h6.9v7.6h13.9v-3.8h-6.9v-3.8h20.8v-3.8h-34.7v-3.8h13.9v-3.8h6.9v3.8h7v-11.4h6.9v11.4h6.9v7.6h27.8v-3.8h-20.8v-3.8h27.7v11.4h7v-3.8h6.9v-3.8h-6.9v-3.8h20.8v3.8h-6.9v3.8h13.8v-3.8h13.9v-3.8h-13.9v-3.8h20.9v-11.4h-7v7.6h-6.9v-3.8h-7v3.8h-6.9v3.8h-13.9v-3.8h-6.9v3.8h-41.7v-3.8h27.8v-3.8h34.7v-3.8h-34.7v-3.8h-6.9v7.6h-7v-3.8h-6.9v3.8h-7v-7.6h-13.8v3.8h-7v7.6h-13.9v3.8h-6.9v-3.8h-6.9v3.8h-7v-7.6h-6.9v7.6h-13.9v7.6h-13.9v-3.8h7v-3.8h-13.9v7.6h-7v7.6h-20.8v-3.8h13.9v-3.8h-13.9v-3.8h20.8v-3.8h-20.8v-3.8h-6.9v26.6h-7v-7.6h-6.9v3.8h-7v-3.8h-13.8v-11.4h6.9v7.6h6.9v-3.8h7v3.8h6.9v-7.6h-13.9v-3.8h13.9v-3.8h-13.9v-3.8h-20.8v-3.8h20.8v-3.8h-27.7v-3.8h20.8v-3.8h6.9v3.8h7v11.4h13.9v-3.8h-7v-11.4h7v7.6h6.9v7.6h6.9v3.8h48.6v-3.8h-13.8l-0.1-3.8h-6.9v3.8h-20.8v-3.8h-7v-3.8h7v-3.8h6.9v7.6h7v-3.8h13.8v-3.8h-13.8v-3.8h-20.9v3.8h-6.9v-11.4h-13.9v-3.8h13.9v-3.8h6.9v11.4h7v-3.8h6.9v3.8h7v-3.8h6.9v7.6h13.9v11.4h6.9v-11.4h7v11.4h6.9v-3.8h7v7.6h6.9v-3.8h6.9v3.8h7v-7.6h6.9v-3.8h-13.9v3.8h-6.9v-3.8h-13.9v-3.8h34.7v-3.8h-55.5v-3.8h-7v-3.8h-27.7v-3.8h34.7v3.8h6.9v3.8h13.9v-3.8h7v3.8h6.9v-3.8h6.9v3.8h7v-3.8h6.9v3.8h7v11.4h6.9v-11.4h6.9v11.4h7v3.8h6.9v-3.8h20.8v3.8h7v-3.8h6.9v-3.8h7v7.6h13.8v3.8h7v-3.8h13.9v-3.8h-27.8v-3.8h6.9v-3.8h7v3.8h34.7v-3.8h20.8v-3.8h-6.9v-3.8h-7v3.8h-6.9v-3.8h-7v7.6h-6.9v-3.8h-6.9v3.8h-7v-7.6h-6.9v3.8h-7v-3.8h-6.9v-3.8h27.8v3.8h6.9v-3.8h6.9v-3.8h-27.7v-3.8h-7v3.8h-6.9v-3.8h-6.9v15.2h6.9v3.8h-20.8v3.8h-34.7v-3.8h6.9v-7.6h7v7.6h6.9v-3.8h20.8v-3.8h-6.9v-3.8h-7v3.8h-6.9v-3.8h-20.8v3.8h-7v-7.6h48.6v-3.8h-55.5v11.4h-6.9v-3.8h-55.6v-3.8h27.8v-3.8h-6.9l-0.1-7.5h-6.9v7.5h-6.9v-3.7h-7v3.7h-13.9v3.8h-6.9v-3.8h-13.9v3.8h-27.7v3.8h-13.9v-3.8h6.9v-3.8h7v-3.7h6.9v3.7h13.9v-3.7h6.9v-3.8h7v3.8h6.9v-11.4h6.9v11.4h7v-3.8h13.9v-3.8h-13.9v-3.8h20.8v3.8h20.8v3.8h-6.9v3.8h6.9v7.5h20.9v-3.8h-13.9v-11.3h6.9v7.6h7v-3.8h6.9v3.8h62.5v-3.8h6.9v3.8h6.9v-3.8h7v3.8h6.9v3.7h7v-3.7h13.8v3.7h7v7.6h20.8v-3.8h-13.9v-3.8h20.9v7.6h6.9v-3.8h6.9v-3.8h-6.9v-3.7h-6.9v-3.8h48.5v-3.8h-55.5v7.6h-6.9v-3.8h-7v3.8h-6.9v-3.8h-7v-3.8h-6.9v3.8h-13.9v-3.8h-6.9v-3.8h34.7v3.8h13.9v-3.8h-7v-3.8h-13.9v-3.8h-6.9v3.8h-6.9v-3.8h-7v3.8h-6.9v-7.6h20.8v-3.8h6.9v-3.8h-13.8v3.8h-13.9v-3.8h6.9v-3.8h13.9v-3.8h-20.8v3.8h-13.9v3.8h6.9v22.8h-6.9v-3.8h-6.9v3.8h-7v3.8h-6.9v-3.8h-7v3.8h-6.9v-3.8h-6.9v3.8h-20.9v-3.8h13.9v-3.8h13.9v-3.8h13.9v3.8h6.9v-3.8h13.9v-3.8h-6.9v-3.8h6.9v-3.8h-13.9v7.6h-20.8v-3.8h13.9v-3.8h-20.8v11.4h-13.9v3.8h-13.9v3.8h-6.9v-3.8h-7v-3.8h20.8v-3.8h13.9v-3.8h-27.7v3.8h-7v-7.6h34.7v-3.8h41.7v-3.8h-27.8v-3.8h-13.9v3.8h-6.9v-3.8h-13.9v3.8h6.9v3.8h-13.8v-7.6h-13.9v3.8h6.9v3.8h-6.9v19h-7v-19h-6.9v19h-7v-3.8h-6.9v-3.8h6.9v-11.4h-6.9v7.6h-6.9v7.6h-7v-7.6h-6.9v7.6h-7v-7.6h-13.8v3.8h6.9v3.8h-6.9v7.6h-7v-3.8h-6.9v7.6h-7v-7.6h-6.9v7.6h-13.9v-3.8h7v-7.6h13.8v-3.8h7v3.8h6.9v-11.4h13.9v-3.8h-20.8v7.6h-7v-7.6h-6.9v11.4h-6.9v-7.6h-20.9v-3.8h20.9v-3.8h13.8v-3.8h-20.8v3.8h-6.9v-7.6h34.7v7.6h6.9v-7.6h7v7.6h13.8v7.6h20.9v-3.8h-13.9v-3.8h41.6v-3.8h-55.5v-3.8h48.6v-3.8h-27.8v-3.8h-6.9v3.8h-13.9v-3.8h6.9v-3.8h13.9v-7.6h-13.9v3.8h-6.9v-3.8h-6.9v3.8h-7v3.8h7v3.8h-7v3.8h-13.9v-3.8h7v-3.8h-20.8v3.8h6.9v3.8h-13.9v-3.8h-6.9v-3.8h6.9v-3.8h-13.9v-3.8h13.9v-3.8h7v7.6h6.9v-3.8h6.9v3.8h7v-3.8h6.9v-3.8h-20.8v-3.8h-20.8v-3.7h27.7v3.7h13.9v-3.7h7v7.5h13.8v-3.8h-6.9v-3.7h13.9v7.5h13.9v15.2h6.9v-15.2h6.9v15.2h7v-3.8h6.9v11.4h7v-15.2h-7v-3.8h-6.9v-3.8h13.9v3.8h6.9v19h6.9v-7.6h7v7.6h34.7v-7.6h-13.9v3.8h-6.9v-3.8h-7v-3.8h-6.9v-3.8h-7v-3.8h7v-7.6h-7v3.8h-6.9v-3.8h-20.8v-3.7h6.9v-3.8h7v3.8h27.7v7.5h7v3.8h-7v3.8h7v3.8h6.9v-7.6h7v7.6h13.8v15.2h7v-7.6h6.9v7.6h20.8v-3.8h-13.8v-3.8h20.8v3.8h27.7v3.8h7v19h6.9v-3.8h7v7.6h6.9v3.8h20.8v-7.6h-6.9v3.8h-6.9l-0.1-3.8h-6.9v-3.8h27.8v7.6h6.9v3.8h7v-7.6h-7v-3.8h20.8v-3.8h13.9v3.8h7v-7.6h6.9v-3.8h-13.9v3.8h-20.8v3.8h-6.9v-3.8h-7v3.8h-6.9v-3.8h-7v3.8h-34.7v-3.8h13.9v-3.8h-13.9v-3.8h20.8v7.6h7v-7.6h13.9v3.8h6.9v-3.8h7v3.8h20.8v-7.6h-7v3.8h-6.9v-3.8h-20.8v-3.8h27.7v-3.8h-20.8v-3.8h20.8v-3.8h-6.9v-3.8h13.9v-3.8h-20.9v7.6h-13.8v7.6h-7v7.6h-6.9v-7.6h-13.9v3.8h6.9v3.8h-27.7v-3.8h13.9v-3.8h-13.9v-3.8h6.9v-3.8h-13.9v11.4h-6.9v-7.6h-6.9v7.6h-7v-7.6h-6.9v3.8h-34.7v-3.8h27.7v-3.8h-41.6v-3.8h48.6v3.8h6.9v-7.6h-34.7v-3.8h13.9v-3.7h-20.8v7.5h-27.8v-3.8h20.8v-3.7h-13.8v-3.8h20.8v-3.8h-27.8v7.6h-6.9v-7.6h-7v3.8h-6.9v-3.8h-7v3.8h-6.9v-3.8h-20.8v3.8h-7v7.5h-20.8v-3.7h13.9v-3.8h-69.4v-3.8h6.9v-3.8h7v3.8h62.4v-3.8h97.2v3.8h7v3.8h13.8v3.8h7v3.7h13.9v11.4h6.9v-3.8h20.8v-3.8h-20.8v-3.8h27.8v15.2h6.9v-7.6h6.9v7.6h13.9v-3.8h-6.9v-3.8h20.8v-3.8h-34.7v-3.8h55.5v-3.8l-90.2 0.1v-3.8h-6.9v3.8h-7v-3.8h-6.9v-3.8h6.9v-3.8h-13.9v3.8h-6.9v-3.8h-6.9v-3.8h-7v-3.8h7v-3.8h-13.9v7.6h-97.2v3.8h-48.6v-3.8h41.7v-3.8h13.8v-3.8h-20.8v3.8h-41.6v3.8h-7v-3.8h-6.9v-3.8h-6.9v3.8h-7v3.8h-6.9v-7.6h6.9v-3.8h20.8v3.8h13.9v-3.8h7v3.8h20.8v-3.8h41.6v3.8h-6.9v3.8h13.9v-3.8h6.9v3.8h27.8v-3.8h6.9v3.8h20.8v-3.8h-13.9v-3.8h41.7v7.6h6.9v3.8h20.9v7.6h6.9v-7.6h13.9v3.8h-7v3.8h7v3.8h13.9v-3.8h-7v-3.8h13.9v7.6h13.9v-3.8h-7v-3.8h13.9v7.6h48.6v-3.8h-41.6v-3.8h34.7v-3.8h-20.9v-3.8h-6.9v3.8h-6.9v-7.6h20.8v-3.8h-13.9v-7.6h-6.9v7.6h-7v11.4h-13.9v-3.8h-6.9v3.8h-13.9v-3.8h-27.7v-3.8h-7v3.8h-6.9v-3.8h-7v-3.8h27.8v3.8h48.6v-3.8h-27.8v-3.8h34.7v-3.8h-13.9v-3.8h-6.9v3.8h-6.9v-3.8h-7v3.8h-6.9v7.6h-7v-3.8h-90.2v3.8h-6.9v-3.8h-13.9v3.8h6.9v3.8h-13.9v-3.8h-13.8v-3.8h-7v-3.8h-6.9v3.8h-41.7v3.8h-6.9v-3.8h-27.8v-3.8h7v-3.8h6.9v3.8h13.9v-3.8h6.9v3.8h7v-3.8h6.9v3.8h7v-3.8h6.9v3.8h6.9v-3.8h20.9v3.8h6.9v3.8h6.9v-3.8h7v-3.8h-13.9v-3.8h-97.2v-3.8h13.9v-3.8h7v3.8h6.9v-3.8h6.9v3.8h20.9v-3.8h6.9v3.8h13.9v-3.8h6.9v3.8h13.9v-3.8h6.9v7.6h13.9v7.6h7v-3.8h6.9v3.8h90.2v-3.8h-62.4v-3.8h-7v3.8h-6.9v-3.8h-20.8v-3.8h20.8v-3.8h6.9v3.8h7v-3.8h13.8v3.8h-6.9v3.8h13.9v-3.8h13.9v3.8h20.8v-3.8h6.9v-3.8h7v7.6h6.9v-3.8h7v-3.8h-7v-7.6h-6.9v3.8h-7v-3.8h-6.9v7.6h-6.9v3.8h-7v-3.8h-20.8v-3.8h27.8v-3.8h-34.8v3.8h-34.7v3.8h-6.9v-3.8h-13.9v7.6h-6.9v-7.6h-7v-3.8h62.5v-3.8h55.5v-3.8h7v-3.8h-13.9v3.8h-6.9v-3.8h-7v3.8h-6.9v-11.3h6.9v3.7h27.8v-3.7h-7v-3.8h-6.9v3.8h-6.9l-0.1-7.6h13.9v-3.8h-27.7v3.8h6.9v3.8h-13.9v15.1h-6.9v-3.8h-7v3.8h-13.8v3.8h-13.9v-3.8h-7v3.8h-41.6v7.6h-13.9v-3.8h7v-3.8h-13.9v7.6h-27.8v3.8h-6.9v-3.8h-27.8v-3.8h55.5v-3.8h-13.8v-3.8h-7v3.8h-41.6v3.8h-13.9v-3.8h6.9v-3.8h7v-3.8h6.9v3.8h7l-0.1-3.8h7v3.8h13.9v-3.8h20.8v3.8h6.9v-3.8h7v3.8h55.5v-3.8h-48.6v-3.7h13.9v-3.8h6.9v3.8l34.7-0.1v3.8h20.9v-3.8h20.8v-7.5h-7v3.8h-20.8v3.7h-6.9v-3.7h-34.7v-3.8h-27.8v3.8h-6.9v3.8h-7v-3.8h-6.9v3.8h-6.9v-3.8h-13.9v3.8h-7v-3.8h-13.9v-7.6h-13.8v-3.8h13.8v-3.8h7v11.4h6.9v-3.8h7v3.8h20.8v-7.6h-6.9v3.8h-7v-3.8h-13.9v-3.8h7v-3.8h6.9v3.8h20.8v11.4h7v-7.6h6.9v3.8h27.8v-3.8h6.9v7.6h48.6v-3.8h20.8v-7.6h-6.9v3.8h-7v-3.8h-6.9v3.8h-6.9v3.8h-34.7v-3.8h27.7v-3.8h-34.7v-7.6h-6.9v7.6h-13.9v3.8h-6.9v-3.8h-7v-3.8h20.8v-3.8h-27.7v3.8h-20.8v-3.8h13.8v-3.8h-20.8v3.8h-6.9v-7.6h-7v3.8h-6.9v3.8h6.9v3.8h-13.9v-11.4h7v-3.8h-20.8v3.8h6.9v3.8h-6.9v3.8h6.9v3.8h-6.9v3.8h-13.9v-3.8h6.9v-3.8h-6.9v-3.8h6.9v-7.6h-13.9v-3.8h48.6v3.8h13.9v3.8h27.8v3.8h6.9v-3.8h7v3.8h6.9v-3.8h6.9v3.8h7v-3.8h6.9v3.8h7v7.6h34.7v-3.8h-27.8v-3.8h27.8v-3.8h-34.7v-3.8h-13.9v-7.6h6.9v3.8h13.9v3.8h27.8v-3.8h-13.9v-3.8h-20.8v-3.8h-7v-3.8h-13.9v7.6h-6.9v3.8h6.9v3.8h-13.8v-3.8h-7v3.8h-27.8v-3.8h20.9v-3.8h13.9v-3.8h6.9v-3.8h-13.9v3.8h-6.9v-3.8h-7v7.6h-6.9v-3.8h-13.9v7.6h-6.9v-7.6h-7v3.8h-6.9v-7.6h34.7v-3.8h62.5v3.8h6.9v3.8h13.9v-3.8h6.9v7.6h7v-15.2h-7v3.8h-6.9v-3.8h-7v3.8h-6.9v-3.8h-76.4v3.8h-6.9v-3.8h-6.9v3.8h-7v-3.8h-13.9v15.2h-41.6v-3.8h34.7v-3.8h-13.9v-3.8h13.9v-3.8h-20.8v7.6h-7v-3.8h-6.9v-3.8h6.9v-3.8h7v-3.8h6.9v3.8h7v-7.5h-13.9v-3.8h13.9v-3.8h6.9v15.1h27.8v-3.8h6.9v3.8h6.9v-7.6l-20.8 0.1v3.7h-13.9v-3.7h7v-3.8h-7v-3.8h7v-3.8h-13.9v-3.8h13.9v-3.8h-7v-3.8h13.9v19h7v-7.6h6.9v7.6h6.9v-7.6h7v11.3h6.9v3.8h-6.9v3.8h76.3v-3.8h-62.4v-3.8h20.8v-3.7h-13.9v-3.8h-6.9v3.8h-7v-7.6h20.8v3.8h7v-7.6h-55.5v-3.8h13.8v-3.8h7v3.8h13.9v-3.8h-7v-3.8h-20.8v3.8h-6.9v-3.8h-7v-3.8h27.8v-3.8h-20.8v-3.8h-7v-15.2h7v3.8h6.9v3.8h-6.9v3.8h6.9v3.8h6.9v-3.8h7v3.8h6.9v7.6h7v3.8h6.9v7.6h6.9v-3.8h7v3.8h6.9v3.8h7v3.8h-7v11.3h7v-3.7h6.9v3.7h13.9v-7.5h-13.9v-3.8h13.9v-3.8h-13.9v-3.8h7v-3.8h-20.9v-7.6h-6.9v3.8h-7v-3.8h-6.9v-3.8h6.9v-3.8h7v3.8h13.9v-3.8h6.9v7.6h-6.9v3.8h13.9l-0.1-19h-6.9v3.8h-34.7v3.8h-6.9v-3.8h-7v-3.8h13.9v-3.8h-20.8v-3.8h27.7v7.6h7v-3.8h6.9v3.8h7v-3.8h6.9v-3.8h-6.9v-3.8h13.8v-7.6h-13.8v3.8h-7v7.6h-6.9v-3.8h-20.8v-3.8h20.8v-3.8h6.9v-7.6h-6.9v3.8h-7v3.8h-6.9v-3.8h-6.9v3.8h-7v-7.6h7v-3.7h6.9v3.7h6.9v-3.7h7v-3.8h-27.8v-3.8h20.8v-3.8h-6.9v-7.6h6.9v3.8h13.9v-3.8h-6.9v-3.8h-20.8v-3.8h6.9v-3.8h6.9v3.8h7v-3.8h6.9v-3.8h7v7.6h-7v3.8h13.9v-3.8h6.9v7.6h-13.8v7.6h-13.9v3.8h6.9v7.6h7v7.5h6.9v-11.3h-6.9v-3.8h6.9v-7.6h6.9v11.4h7v-22.8h6.9v3.8h7v3.8h-7v3.8h7v3.8h-7v7.6h13.9v-15.2h20.8v3.8h-13.9l0.1 15.2h-34.8v7.5h7v11.4h6.9v-15.2h7v19h-20.9v3.8h20.9v3.8h-13.9v7.6h6.9v-3.8h7v7.6h-13.9v15.2h13.9v3.8h-7v3.8h7v3.8h-7v7.5h7v7.6h6.9v-7.6h7v-3.7h-7v-3.8h7v-7.6h-7v-3.8h7v-3.8h-20.9v-7.6h7v3.8h13.9v-3.8h-7v-3.8h7v-3.8h-7v-3.8h7v-3.8h-7v-3.8h7v-3.8h-7v-3.8h7v-7.6h-7v-7.6h7v3.8h6.9v-18.9h6.9v7.6h13.9v3.8h-13.9v7.5h7v-3.8h6.9v3.8h7v7.6h-7v-3.8h-20.8v3.8h13.9v3.8h13.9v3.8h-20.9v-3.8h-6.9v7.6h20.8v3.8h-20.8v11.4h13.9v-3.8h-7v-3.8h13.9v3.8h7v-7.6h6.9v-3.8h6.9v7.6h-6.9v3.8h6.9v3.8h-20.8v3.8h-20.8v3.8h20.8v3.8h-20.8v7.6h6.9v-3.8h13.9v3.8h-6.9v3.8h-13.9v15.1h-6.9v3.8h13.8v-15.1h7v18.9h-13.9v38h13.9v-3.8h-7v-3.8h7v-3.8h-7v-3.8h7v-3.8h-7v-15.2h7v7.6h6.9v7.6h7v-7.6h6.9v-3.8h-13.9v-22.7h7v-3.8h-7v-3.8h7v-19h6.9v3.8h6.9v3.8h-6.9v3.8h6.9v3.8h-6.9v11.4h6.9v-7.6h7v11.3h-20.8v15.2h6.9v-11.4h6.9v3.8h7v3.8h-7v3.8h7v3.8h-7v3.8h7v3.8h-7v3.8h-6.9v3.8h-13.9v3.8h7v3.8h-7v3.8h13.9v3.8h-6.9v3.8h20.8v-3.8h-7v-3.8h7v-3.8h-13.9v-3.8h6.9v-3.8h7v-3.8h6.9v11.4h13.9v-3.8h-6.9v-7.6h6.9v-3.8h-13.9v-34.1h7v11.3h6.9v-3.8h6.9v7.6h-13.8v15.2h6.9v-11.4h6.9l0.1 26.6h6.9v-7.6h6.9v-3.8h-6.9v-11.4h6.9v7.6h7v11.4h6.9v-15.2h-6.9v-3.8h6.9v-3.8h-20.8v-3.8h27.8v-3.8h-27.8v-3.8h6.9v-3.7h-13.9v-3.8h-6.9v-3.8h-6.9v-3.8h-13.9v-7.6h6.9v3.8h7v-3.8h6.9v7.6h6.9v3.8h7v3.8h6.9v-7.6h-6.9v-7.6h-7v-3.8h-20.8v-3.8h-6.9v-3.8h6.9v-3.8h7v-3.8h-13.9v-3.8h13.9v-3.8h6.9v15.2h-6.9v3.8h13.8v-3.8h7v-3.8h-7v-3.8h7v-3.8h-7v-3.8h13.9v15.2h7v-19h-41.7v3.8h-6.9v-3.8h-7v-3.8h-6.9v-3.8h6.9v-3.8h-6.9v-3.8h13.9v11.4h20.8v-3.8h-13.9v-7.6h7v3.8h6.9v-3.8h6.9v11.4h7v-3.8h6.9v3.8h7v-7.6h-7v-3.8h-6.9v-3.8h-41.7v-7.5h7v3.8h6.9v-7.6h-6.9v-3.8h6.9v-3.8h7v15.2h6.9v-11.4h6.9v11.4h7v-11.4h13.9v3.8h-7v3.8h7v3.8h-7v3.7h7v3.8h6.9v-15.1h13.9v3.8h-7v15.1h-6.9v3.8h6.9v3.8h-6.9v7.6h13.9v7.6h-7v-3.8h-6.9v11.4h6.9v3.8h-6.9v7.6h-6.9v-7.6h-13.9v3.8h6.9v7.6h7v3.8h6.9v3.8h-6.9v3.8h6.9v3.8h-6.9v3.7h13.9v-7.5h6.9v-3.8h-6.9v-3.8h13.8v11.4h-6.9v3.7h6.9v3.8h-6.9v3.8h6.9v3.8h-13.8v3.8h6.9v3.8h-6.9v3.8h13.8v3.8h-13.8v3.8h13.8v3.8h-6.9v3.8h-27.8v3.8h27.8v3.8h-34.7v-3.8h-6.9v3.8h-7v3.8h-6.9v-3.8h-7v7.6h7v3.8h6.9v-3.8h7v-3.8h6.9v11.4h-20.8v3.8h20.8v3.8h-13.9v15.1h7v-11.4h6.9v15.2h-6.9v3.8h6.9v11.4h6.9v-3.8h7v-3.8h-7v-26.5h13.9v-7.6h-6.9v3.8h-7v-15.2h20.9v3.8h-13.9v3.8h13.9v15.1h-13.9v3.8h6.9v3.8h-6.9v3.8h6.9v3.8h-6.9v3.8h6.9v11.4h-6.9v3.8h13.9v-3.8h6.9v-3.8h-6.9v-22.8h6.9v-26.5h6.9v30.3h-6.9v11.4h6.9v7.6h7v-11.4h-7v-3.8h7v-3.8h6.9v3.8h7v3.8h-7v3.8h7v7.6h-7v3.8h-13.9v3.8h7v3.8h-7v3.8h13.9v11.4h7v-11.4h6.9v-3.8h-13.9v-3.8h7v-3.8h6.9v-7.6h6.9v3.8h7v7.6h-7v11.4h-6.9v11.4h13.9v-3.8h-6.9l-0.1-3.8h7v-3.8h6.9v-3.8h-6.9v-3.8h13.9v7.6h6.9v3.8h7v-3.8h6.9v7.6h6.9v-7.6h7v-3.8h6.9v-3.8h-13.9v3.8h-6.9v-3.8h-6.9v3.8h-7v-7.6h-13.9v-3.8h13.9v-3.8h-13.9v-3.8h-6.9v-3.8h-13.9v-3.8h13.9v-3.8h-13.9v-3.8h-6.9v-3.8h-13.9v-11.3h6.9v7.5h7v-3.7h6.9v7.5h6.9v-15.1h-6.9v3.8h-6.9v-3.8h-13.9v-7.6h6.9v3.8h7v-7.6h-13.9v-3.8h-7v-7.6h7v3.8h6.9v-7.6h-6.9v-3.8h13.9v-3.8h-13.9v-3.8h6.9v-3.8h-13.9v-3.8h13.9v-7.6h-6.9v-11.3h6.9v7.5h13.9v-3.8h-6.9v-3.7h6.9v-3.8h-20.8v-3.8h20.8v-3.8h-13.9v-3.8h-27.8v-3.8h27.8v-3.8h-20.8v-3.8h6.9v-3.8h-6.9v-3.8h13.9v7.6h6.9v-11.4h-13.9v-11.4h-6.9v-3.8h6.9v-7.6h-6.9v-3.8h6.9v-3.8h-6.9v-3.7h6.9v-11.4h7v7.6h6.9v-15.2h6.9v15.2h7v-3.8h6.9v3.8h7v3.8h-34.7v3.7h13.8v3.8h-13.8v11.4h6.9v-7.6h13.9v-3.8h6.9v3.8h7v-7.6h6.9v3.8h7v3.8h-7v3.8h-27.8l0.1 7.6h-13.9v7.6h6.9v-3.8h7v11.4h6.9v-19h13.9v3.8h-7v15.2h7v-11.4h6.9v11.4h7v-3.8h6.9v7.6h-41.6v7.6h6.9v3.8h-6.9v3.8h13.8v-11.4h20.9v3.8h-13.9v3.8h13.9v7.6h-7v-3.8h-6.9v3.8h-7v15.1h7v-11.3h6.9v11.3h7v-3.7h6.9v-3.8h-6.9v-3.8h13.8v-3.8h-6.9v-3.8h6.9v-7.6h-6.9v-3.8h6.9v-7.6h7v30.4h-7v7.5h-6.9v3.8h-13.9v3.8h-6.9v-3.8h-7v7.6h-6.9v-3.8h-6.9v7.6h6.9v3.8h-6.9v3.8h6.9v11.4h-6.9v3.8h6.9v3.8h-6.9v3.8h6.9v7.6h6.9v3.8h7v15.1h13.9v3.8h-13.9v3.8h6.9v11.4h7v-3.8h6.9v-3.8h-6.9v-3.8h6.9v-3.8h6.9v-3.8h-6.9v-3.7h-13.9v-3.8h27.8v18.9h-6.9v7.6h-7v3.8h7v11.4h6.9v-3.8h6.9v-3.8h-6.9v-11.4h6.9v7.6h7v-11.4h-7v-7.6h7v-3.8h-7v-11.3h-34.7v-3.8h7v-3.8h6.9v3.8h6.9v-7.6h-20.8v3.8h-6.9v-3.8h-7v-3.8h27.8v-3.8h-6.9v-3.8h-7v3.8h-13.9v-3.8h7v-3.8h-7v-3.8h7v-3.8h-7v-3.8h7v-3.8h-7v-3.8h7v-3.8h6.9v22.8h7v-26.6h6.9v3.8h6.9v3.8h-6.9v7.6h6.9v3.8h7v-3.8h6.9v-3.8h-6.9v-11.4h-7v-3.8h13.9v-3.8h-6.9v-3.7h6.9v-22.8h7v-3.8h-7v-3.8h7v-7.6h-7v-3.8h-6.9v3.8h-7v-7.6h-6.9v3.8h-6.9v-7.6h-7v-3.8h7v-3.8h6.9v7.6h6.9v-3.8h7v7.6h6.9v-11.4h-13.9v-7.6h7v3.8h6.9v-7.6h-27.7v-3.7l20.8-0.1v-3.7h-13.9v-3.8h-6.9v3.8h-7v-3.8h-6.9v-7.6h-13.9v-3.8h20.8v7.6h20.8v3.8h7v-7.6h6.9v-3.8h7v3.8h6.9v3.8h-13.9v3.8h7v3.8h-7v3.7h7v3.8h6.9v-7.5h6.9v3.7h7v-7.5h-7v-7.6h7v3.8h6.9v11.3h7v7.6h-7v-3.8h-13.9v3.8h-13.8v3.8h13.8v3.8h-13.8v3.8h13.8v7.6h-6.9v-3.8h-6.9v7.6h20.8v-19h6.9v11.4h7v-7.6h6.9v-7.6h6.9v3.8h7v3.8h-7v3.8h-6.9v7.6h-13.9v3.8h7v3.8h6.9v3.8h-6.9v3.8h-7v-7.6h-6.9v3.8h-7v-3.8h-6.9v7.6h13.9v3.8h-13.9v7.6h-6.9v15.2h6.9v-7.6h6.9v-3.8h7v-3.8h-7v-3.8h13.9v-3.8h7v3.8h13.8v-3.8h13.9v-3.8h-13.9v-19h7v15.2h6.9v-15.2h7v26.6h-13.9v3.8h-27.8v3.8h20.8v3.8h-27.7v3.8h-7v3.8h20.9v-3.8h6.9v7.6h-13.9v7.5h-6.9v-7.5h-20.8v3.7h13.8v3.8h-13.8v3.8h-7v7.6h7v11.4h6.9v-7.6h6.9v11.4h-6.9v3.8h-6.9v-3.8h-7v3.8h-13.9v-3.8h-6.9v7.6h20.8v3.8h-13.9v3.8h7v7.6h6.9v3.8h7v-7.6h-7v-3.8h7v-7.6h6.9v3.8h6.9l0.1 3.8h-7v3.8h7v3.8h-7v3.8h7v3.8h-7v3.8h-6.9v3.8h6.9v11.3h7v-7.6h6.9v-3.7h-6.9v-3.8h6.9v-15.2h6.9v15.2h7v-3.8h6.9v-3.8h-6.9v-11.4h-13.9v-7.6h-7v-3.8h7v-19h-7v-3.8h-6.9v-3.8h13.9v3.8h6.9v30.4h7v-3.8h6.9v15.2h7v11.4h-7v7.5h-6.9v-3.7h-7v7.5h7v7.6h-7v-3.8h-6.9v3.8h-13.9v7.6h7v-3.8h13.8v3.8h-6.9v3.8h-13.9v3.8h13.9v3.8h6.9v-7.6h7v11.4h-13.9v7.6h6.9v-3.8h7v7.6h-7v3.8h13.9v3.8h7v-7.6h-7v-3.8h13.9v-3.8h-13.9v-3.8h13.9v-3.8h-13.9v-11.4h-6.9v-3.8h13.9v-3.8h-7v-7.6h13.9v15.2h-6.9v7.6h6.9v-3.8h6.9v-7.6h7v-3.8h-7v-7.6h7v-3.8h-20.8v-3.7h6.9v-15.2h6.9v15.2h7v-19h-20.8v-3.8h6.9v-3.8h-6.9v-3.8h6.9v-3.8h-20.8v-3.8h6.9v-3.8h-6.9v-19h6.9v-3.8h-6.9v-3.8h13.8l0.1 11.4h-7v3.8h7v3.8h-7v3.8h7v7.6h6.9v-11.4h6.9v19h7v-15.2h6.9v-7.6h-20.8v-3.8h20.8v-3.8h-20.8v-3.8h6.9v-7.5h-13.9v-3.8h20.9v11.3h6.9v-15.1h-20.8v-3.8h6.9v-7.6h7v7.6h6.9v-3.8h7v-3.8h-7v-3.8h7v-3.8h-7v-22.8h6.9v3.8h7v3.8h-7v3.8h13.9v3.8h-13.9l0.1 3.8h6.9v11.4h6.9v3.8h-6.9v3.8h-6.9v15.1h6.9v3.8h-6.9v19h6.9v-7.6h6.9v7.6h7v-11.4h-13.9v-3.8h6.9v-11.4h-6.9v-3.7h6.9v-3.8h7v-7.6h6.9v11.4h-6.9v7.5h6.9v-3.8h7v-18.9h-13.9v-3.8h-7v-3.8h7v-3.8h6.9v-3.8h-6.9v-3.8h6.9v-7.6h-6.9v3.8h-7v-7.6h13.9v-7.6h7v-7.6h6.9v11.4h-6.9v7.6h6.9v3.8h-6.9v3.8h6.9v3.8h-6.9v3.8h6.9v3.8h-13.9v3.8h13.9v3.8h13.9v3.8h-13.9v15.1h6.9v-11.3h7v11.3h6.9v-18.9h7v22.7h-34.7v3.8h-13.9v3.8h6.9v3.8h7v-3.8h6.9v7.6h-13.9v11.4h-34.7v3.8h13.9v3.8h-13.9v3.8h13.9v3.8h-27.8v3.8h20.9v3.8h-7v3.8h7v7.6h-7v22.7h7v-18.9h6.9v7.5h6.9v3.8h7v-3.8h6.9v-3.7h-13.9v-3.8h7v-3.8h-13.9v-3.8h6.9v-3.8h-6.9v-7.6h6.9v-3.8h7v11.4h6.9v-15.2h-13.9v-7.6h13.9v3.8h7v15.2h6.9v3.8h6.9v3.8h-20.8v3.8h7v3.8h6.9v-3.8h6.9v7.6h-13.8v7.5h-7v3.8h-20.8v3.8h20.8v3.8h-6.9v3.8h13.9v-11.4h6.9v-7.6h6.9v7.6h7v-11.3l27.8-0.1-0.1-3.7h-27.7v-3.8h6.9v-3.8h-6.9v-3.8h6.9v-7.6h-6.9v3.8h-7v-3.8h-6.9v-7.6h6.9v-3.8h-6.9v-3.8h-6.9v-11.4h6.9v3.8h6.9v-19h7v3.8h6.9v-3.8h7v7.6h-13.9v3.8h6.9v3.8h-6.9v7.6h-7v3.8h7v11.4h13.9v19h13.8v-3.8h-6.9v-3.8h6.9v-3.8h-6.9v-11.4h-13.9v-7.6h7v3.8h6.9v-7.6h-13.9v-3.8h13.9v-3.8h-6.9v-3.8h6.9v-3.8h6.9v26.6h7v-15.2h6.9v-3.8h-6.9v-3.8h6.9v-7.6h-20.8v-3.8h27.8v-3.8h-27.8v-22.7h6.9v18.9h20.9v-3.7h-13.9v-11.4h6.9v7.6h7v-11.4h-13.9v-3.8h-20.8v-3.8h20.8v-3.8h6.9v7.6h7v-11.4h-20.9v3.8h-20.8v7.6h-13.9v-3.8h7v-3.8h-7v-3.8h7v-3.8h-7v-15.2h7v11.4h6.9v7.6h13.9v-3.8h-6.9v-3.8h6.9v-3.8h6.9v-3.8h-13.8v3.8h-7v-7.6h20.8v-3.8h-20.8v-7.6h7v3.8h13.8v-7.6h-6.9v-3.8h-6.9v-3.7h13.8v3.7h7v3.8h13.9v-3.8h13.8v3.8h-6.9v3.8h-20.8v3.8h6.9v3.8h-6.9v15.2h-7v3.8h20.9v-3.8h-7v-11.4h7v7.6h13.8v-3.8h-6.9v-3.8h6.9v-3.8h-13.8v-3.8h20.8v-7.6h6.9v-3.8h7v3.8h6.9v-3.8h6.9v7.6h-20.8v3.8h20.8v3.8h-27.7v7.6h6.9v-3.8h13.9v3.8h-6.9v3.8h-13.9v3.8h-13.9v3.8h20.8v-3.8h13.9v3.8h-6.9v3.8h-27.8v3.8h6.9v3.8h-6.9v3.8h13.9v-7.6h6.9v11.4h-20.8v7.6h6.9v-3.8h7v3.8h6.9v3.8h-20.8v3.8h6.9v3.7h-6.9v11.4h-6.9v3.8h6.9v3.8h-6.9v11.4h-7v7.6h7v-3.8h6.9v7.6h-6.9v3.8h-20.9v3.8h7v11.4h6.9v-11.4h7v3.8h6.9v-7.6h7v-3.8h6.9v-3.8h-6.9l-0.1-7.6h-6.9v-7.6h6.9v3.8h7v7.6h6.9v-11.4h-6.9v-3.8h-7v-3.8h7v-3.8h6.9v7.6h7v7.6h6.9v3.8h-6.9v7.6h6.9v-3.8h7v-15.2h-7v-3.8h-6.9"/>
</svg>